<svg width="14" height="14" viewBox="0 0 14 14" fill="none" xmlns="http://www.w3.org/2000/svg">
<path d="M7.66667 2.33333V1L13 1V6.33333H11.6667V3.27616L8.09073 6.8521C7.83038 7.11245 7.40827 7.11245 7.14792 6.8521C6.88757 6.59175 6.88757 6.16964 7.14792 5.90929L10.7239 2.33333L7.66667 2.33333Z" fill="#FFAE00"/>
<path fill-rule="evenodd" clip-rule="evenodd" d="M2.33333 7.66667C1.59695 7.66667 1 8.26362 1 9L1 11.6667C1 12.403 1.59695 13 2.33333 13H5C5.73638 13 6.33333 12.403 6.33333 11.6667V9C6.33333 8.26362 5.73638 7.66667 5 7.66667H2.33333ZM2.33333 9L2.33333 11.6667H5V9H2.33333Z" fill="#FFAE00"/>
</svg>
