<svg width="20" height="20" viewBox="0 0 20 20" fill="none" xmlns="http://www.w3.org/2000/svg">
<path fill-rule="evenodd" clip-rule="evenodd" d="M11.6663 2.49998V2.74154C14.0759 3.45867 15.833 5.6908 15.833 8.33331V14.1666H16.6663V15.8333H3.33301V14.1666H4.16634V8.33331C4.16634 5.6908 5.92343 3.45867 8.33301 2.74154V2.49998C8.33301 1.57951 9.0792 0.833313 9.99967 0.833313C10.9201 0.833313 11.6663 1.57951 11.6663 2.49998ZM5.83301 14.1666H14.1663V8.33331C14.1663 6.03213 12.3009 4.16665 9.99967 4.16665C7.69849 4.16665 5.83301 6.03213 5.83301 8.33331V14.1666ZM11.6663 17.5V16.6666H8.33301V17.5C8.33301 18.4205 9.0792 19.1666 9.99967 19.1666C10.9201 19.1666 11.6663 18.4205 11.6663 17.5Z" fill="#DAE0E6"/>
</svg>
