<svg width="20" height="20" viewBox="0 0 20 20" fill="none" xmlns="http://www.w3.org/2000/svg">
<path fill-rule="evenodd" clip-rule="evenodd" d="M3.33301 2.5C1.9523 2.5 0.833008 3.61929 0.833008 5V8.33333C0.833008 9.71404 1.9523 10.8333 3.33301 10.8333H16.6663C18.0471 10.8333 19.1663 9.71404 19.1663 8.33333V5C19.1663 3.61929 18.0471 2.5 16.6663 2.5H3.33301ZM16.6663 4.16667H3.33301C2.87277 4.16667 2.49967 4.53976 2.49967 5V8.33333C2.49967 8.79357 2.87277 9.16667 3.33301 9.16667H16.6663C17.1266 9.16667 17.4997 8.79357 17.4997 8.33333V5C17.4997 4.53976 17.1266 4.16667 16.6663 4.16667Z" fill="#DAE0E6"/>
<path d="M5.83301 16.6667C5.83301 16.2064 6.2061 15.8333 6.66634 15.8333H13.333C13.7932 15.8333 14.1663 16.2064 14.1663 16.6667C14.1663 17.1269 13.7932 17.5 13.333 17.5H6.66634C6.2061 17.5 5.83301 17.1269 5.83301 16.6667Z" fill="#DAE0E6"/>
<path d="M4.16634 12.5C3.7061 12.5 3.33301 12.8731 3.33301 13.3333C3.33301 13.7936 3.7061 14.1667 4.16634 14.1667H15.833C16.2932 14.1667 16.6663 13.7936 16.6663 13.3333C16.6663 12.8731 16.2932 12.5 15.833 12.5H4.16634Z" fill="#DAE0E6"/>
</svg>
