<svg width="18" height="18" viewBox="0 0 18 18" fill="none" xmlns="http://www.w3.org/2000/svg">
<path d="M15.8499 4.73651L6.65652 3.58714C6.17082 3.52631 5.69576 3.62384 5.27069 3.83453L5.07528 2.1697C4.92827 0.932839 3.87837 0 2.63432 0H0.818182C0.365945 0 0 0.366344 0 0.818182C0 1.27002 0.365945 1.63636 0.818182 1.63636H2.63432C3.0506 1.63636 3.40137 1.94877 3.45011 2.36226L4.7429 13.3758C4.87413 14.4801 5.72657 15.337 6.7929 15.509C6.63884 15.7585 6.54545 16.0495 6.54545 16.3636C6.54545 17.2661 7.27974 18 8.18182 18C9.0839 18 9.81818 17.2661 9.81818 16.3636C9.81818 16.0643 9.73149 15.7871 9.59056 15.5455H13.3185C13.1776 15.7871 13.0909 16.0643 13.0909 16.3636C13.0909 17.2661 13.8252 18 14.7273 18C15.6293 18 16.3636 17.2661 16.3636 16.3636C16.3636 16.0643 16.2769 15.7871 16.136 15.5455H17.1818C17.6341 15.5455 18 15.1791 18 14.7273C18 14.2754 17.6341 13.9091 17.1818 13.9091H7.18386C6.76758 13.9091 6.41681 13.5967 6.36808 13.1844L6.25312 12.205C6.42945 12.2453 6.61022 12.2727 6.79794 12.2727H15.5455C16.899 12.2727 18 11.1717 18 9.81818V7.17188C18 5.93661 17.0756 4.88952 15.8499 4.73651ZM16.3636 9.81818C16.3636 10.2692 15.9969 10.6364 15.5455 10.6364H6.79794C6.38326 10.6364 6.03329 10.3256 5.98535 9.91366L5.53951 6.11799C5.50994 5.8667 5.59624 5.62021 5.77601 5.44203C5.93102 5.28822 6.13556 5.20432 6.3505 5.20432C6.38485 5.20432 6.41921 5.20632 6.45357 5.21072L15.6469 6.36009C16.0552 6.41122 16.3636 6.75999 16.3636 7.17188V9.81818Z" fill="#FFAE00"/>
</svg>
