<svg width="20" height="20" viewBox="0 0 20 20" fill="none" xmlns="http://www.w3.org/2000/svg">
<path d="M12.5 14.1667C13.4205 14.1667 14.1667 13.4205 14.1667 12.5C14.1667 11.5795 13.4205 10.8333 12.5 10.8333C11.5795 10.8333 10.8333 11.5795 10.8333 12.5C10.8333 13.4205 11.5795 14.1667 12.5 14.1667Z" fill="#FFAE00"/>
<path fill-rule="evenodd" clip-rule="evenodd" d="M5 2.5C3.61929 2.5 2.5 3.61929 2.5 5V15C2.5 16.3807 3.61929 17.5 5 17.5H15C16.3807 17.5 17.5 16.3807 17.5 15V5C17.5 3.61929 16.3807 2.5 15 2.5H5ZM4.16667 15V5.83333H15.8333V15C15.8333 15.4602 15.4602 15.8333 15 15.8333H5C4.53976 15.8333 4.16667 15.4602 4.16667 15Z" fill="#FFAE00"/>
</svg>
