<svg width="28" height="20" viewBox="0 0 28 20" fill="none" xmlns="http://www.w3.org/2000/svg">
<path d="M2.75281 0.624512V2.50149H5.56165V0.624512H2.75281ZM6.49548 0.624512V2.50149H17.6246L15.984 15.6228H10.0715C9.68043 14.5377 8.64825 13.746 7.43664 13.746C6.22504 13.746 5.19286 14.5377 4.80176 15.6228H0.875977V17.4978H4.79993C5.1895 18.5839 6.22302 19.3729 7.43664 19.3729C8.65027 19.3729 9.68378 18.5839 10.0734 17.4978H16.9893C17.379 18.5836 18.4107 19.3729 19.6241 19.3729C20.8378 19.3729 21.8713 18.5839 22.2609 17.4978H24.3098C24.7295 17.5007 25.0998 17.2235 25.2162 16.8203L27.0857 10.2596C27.1396 10.0736 27.1345 9.87503 27.0712 9.69191L25.1193 4.06509C24.9882 3.6878 24.6325 3.43511 24.233 3.43532H19.3972L19.6169 1.67751C19.686 1.11983 19.2524 0.626886 18.6904 0.624512H6.49548ZM0.875977 4.37652V6.25154H3.68664V4.37652H0.875977ZM4.62781 4.37652V6.25154H10.2473V4.37652H4.62781ZM19.1627 5.31035H23.5682L25.2015 10.0234L23.603 15.6228H22.259C21.8679 14.5377 20.8358 13.746 19.6241 13.746C19.0416 13.746 18.4982 13.9291 18.0476 14.2385L19.1627 5.31035ZM2.75281 8.12636V10.0033H7.43664V8.12636H2.75281ZM8.37231 8.12636V10.0033H11.1885V8.12636H8.37231ZM0.875977 11.871V13.746H3.68664V11.871H0.875977ZM7.43664 15.6228C7.96551 15.6228 8.37231 16.0351 8.37231 16.564C8.37231 17.0929 7.96551 17.4978 7.43664 17.4978C6.90777 17.4978 6.49548 17.0929 6.49548 16.564C6.49548 16.0351 6.90777 15.6228 7.43664 15.6228ZM19.6241 15.6228C20.153 15.6228 20.558 16.0351 20.558 16.564C20.558 17.0929 20.153 17.4978 19.6241 17.4978C19.0953 17.4978 18.6903 17.0929 18.6903 16.564C18.6903 16.0351 19.0953 15.6228 19.6241 15.6228Z" fill="#FFAE00"/>
</svg>
