<svg width="30" height="30" viewBox="0 0 30 30" fill="none" xmlns="http://www.w3.org/2000/svg">
<circle cx="15" cy="15" r="15" fill="#FFF45F"/>
<path fill-rule="evenodd" clip-rule="evenodd" d="M11.25 10.5C9.91421 10.5 8.5 11.6643 8.5 13.5001C8.5 15.6498 10.0804 17.6439 11.8647 19.1821C12.7353 19.9327 13.6096 20.536 14.268 20.9522C14.5641 21.1394 14.8149 21.2877 15 21.3936C15.1851 21.2877 15.4359 21.1394 15.732 20.9522C16.3904 20.536 17.2647 19.9327 18.1353 19.1821C19.9196 17.6439 21.5 15.6498 21.5 13.5001C21.5 11.6643 20.0858 10.5 18.75 10.5C17.3768 10.5 16.1412 11.4859 15.7211 12.9561C15.6291 13.2781 15.3349 13.5001 15 13.5001C14.6651 13.5001 14.3709 13.2781 14.2789 12.9561C13.8588 11.4859 12.6232 10.5 11.25 10.5ZM15 22.2502C14.6554 22.9164 14.6552 22.9163 14.655 22.9161L14.6527 22.9149L14.6473 22.9121L14.6288 22.9024C14.6131 22.8941 14.5907 22.8822 14.5621 22.8667C14.5048 22.8358 14.4225 22.7906 14.3188 22.7319C14.1114 22.6144 13.8177 22.4422 13.4664 22.2201C12.7654 21.7769 11.8272 21.1302 10.8853 20.3183C9.04459 18.7314 7 16.3504 7 13.5001C7 10.8358 9.08579 9 11.25 9C12.7974 9 14.1529 9.80152 15 11.02C15.8471 9.80152 17.2026 9 18.75 9C20.9142 9 23 10.8358 23 13.5001C23 16.3504 20.9554 18.7314 19.1147 20.3183C18.1728 21.1302 17.2346 21.7769 16.5336 22.2201C16.1823 22.4422 15.8886 22.6144 15.6812 22.7319C15.5775 22.7906 15.4952 22.8358 15.4379 22.8667C15.4093 22.8822 15.3869 22.8941 15.3712 22.9024L15.3527 22.9121L15.3473 22.9149L15.345 22.9161C15.3448 22.9163 15.3446 22.9164 15 22.2502ZM15 22.2502L15.345 22.9161C15.1289 23.028 14.8711 23.028 14.655 22.9161L15 22.2502Z" fill="#171F26"/>
</svg>
