<svg width="26" height="26" viewBox="0 0 26 26" fill="none" xmlns="http://www.w3.org/2000/svg">
<g filter="url(#filter0_d_231_635)">
<path fill-rule="evenodd" clip-rule="evenodd" d="M8.78125 3.71432C7.27849 3.71432 5.6875 5.04487 5.6875 7.14295C5.6875 9.59978 7.46546 11.8787 9.47279 13.6367C10.4522 14.4945 11.4358 15.184 12.1765 15.6597C12.5096 15.8736 12.7918 16.0431 13 16.1641C13.2082 16.0431 13.4904 15.8736 13.8235 15.6597C14.5642 15.184 15.5478 14.4945 16.5272 13.6367C18.5345 11.8787 20.3125 9.59978 20.3125 7.14295C20.3125 5.04487 18.7215 3.71432 17.2188 3.71432C15.6739 3.71432 14.2839 4.84098 13.8113 6.52127C13.7078 6.88925 13.3767 7.14295 13 7.14295C12.6233 7.14295 12.2922 6.88925 12.1887 6.52127C11.7161 4.84098 10.3261 3.71432 8.78125 3.71432ZM13 17.1431C12.6124 17.9045 12.6121 17.9044 12.6119 17.9042L12.6093 17.9028L12.6032 17.8996L12.5824 17.8885C12.5648 17.879 12.5396 17.8654 12.5074 17.8477C12.4429 17.8124 12.3504 17.7607 12.2337 17.6937C12.0003 17.5594 11.6699 17.3626 11.2747 17.1087C10.4861 16.6022 9.43057 15.8631 8.37096 14.9352C6.30016 13.1216 4 10.4005 4 7.14295C4 4.09808 6.34651 2 8.78125 2C10.522 2 12.047 2.91603 13 4.30856C13.953 2.91603 15.4779 2 17.2188 2C19.6535 2 22 4.09808 22 7.14295C22 10.4005 19.6998 13.1216 17.629 14.9352C16.5694 15.8631 15.5139 16.6022 14.7253 17.1087C14.3301 17.3626 13.9997 17.5594 13.7663 17.6937C13.6496 17.7607 13.5571 17.8124 13.4926 17.8477C13.4604 17.8654 13.4352 17.879 13.4176 17.8885L13.3968 17.8996L13.3907 17.9028L13.3881 17.9042C13.3879 17.9044 13.3876 17.9045 13 17.1431ZM13 17.1431L13.3881 17.9042C13.145 18.0319 12.855 18.0319 12.6119 17.9042L13 17.1431Z" fill="#DAE0E6"/>
</g>
<defs>
<filter id="filter0_d_231_635" x="-1" y="0" width="28" height="28" filterUnits="userSpaceOnUse" color-interpolation-filters="sRGB">
<feFlood flood-opacity="0" result="BackgroundImageFix"/>
<feColorMatrix in="SourceAlpha" type="matrix" values="0 0 0 0 0 0 0 0 0 0 0 0 0 0 0 0 0 0 127 0" result="hardAlpha"/>
<feOffset dy="4"/>
<feGaussianBlur stdDeviation="2"/>
<feComposite in2="hardAlpha" operator="out"/>
<feColorMatrix type="matrix" values="0 0 0 0 0 0 0 0 0 0 0 0 0 0 0 0 0 0 0.25 0"/>
<feBlend mode="normal" in2="BackgroundImageFix" result="effect1_dropShadow_231_635"/>
<feBlend mode="normal" in="SourceGraphic" in2="effect1_dropShadow_231_635" result="shape"/>
</filter>
</defs>
</svg>
