<svg width="14" height="14" viewBox="0 0 14 14" fill="none" xmlns="http://www.w3.org/2000/svg">
<path fill-rule="evenodd" clip-rule="evenodd" d="M4.1876 3.07145C3.18576 3.07145 2.1251 3.90305 2.1251 5.21435C2.1251 6.74987 3.31041 8.17422 4.64862 9.27292C5.3016 9.80907 5.95731 10.24 6.45107 10.5373C6.67315 10.671 6.86129 10.7769 7.0001 10.8526C7.13891 10.7769 7.32705 10.671 7.54913 10.5373C8.04289 10.24 8.69862 9.80907 9.35157 9.27292C10.6898 8.17422 11.8751 6.74987 11.8751 5.21435C11.8751 3.90305 10.8144 3.07145 9.8126 3.07145C8.7827 3.07145 7.85601 3.77562 7.54095 4.8258C7.47196 5.05579 7.25124 5.21435 7.0001 5.21435C6.74895 5.21435 6.52824 5.05579 6.45924 4.8258C6.14419 3.77562 5.21749 3.07145 4.1876 3.07145ZM7.0001 11.4645C6.74167 11.9403 6.74152 11.9403 6.74135 11.9401L6.73558 11.9373L6.72172 11.9303C6.70995 11.9244 6.69315 11.9159 6.67167 11.9048C6.62873 11.8828 6.567 11.8505 6.4892 11.8085C6.33365 11.7246 6.11338 11.6016 5.84991 11.443C5.32413 11.1264 4.62048 10.6644 3.91407 10.0845C2.53354 8.95099 1.0001 7.25032 1.0001 5.21435C1.0001 3.31131 2.56444 2.00001 4.1876 2.00001C5.34812 2.00001 6.36477 2.57252 7.0001 3.44285C7.63543 2.57252 8.65205 2.00001 9.8126 2.00001C11.4357 2.00001 13.0001 3.31131 13.0001 5.21435C13.0001 7.25032 11.4666 8.95099 10.0861 10.0845C9.3797 10.6644 8.67605 11.1264 8.15028 11.443C7.88682 11.6016 7.66655 11.7246 7.511 11.8085C7.43319 11.8505 7.37147 11.8828 7.32852 11.9048C7.30704 11.9159 7.29025 11.9244 7.27848 11.9303L7.26462 11.9373L7.26058 11.9393L7.25886 11.9401C7.25868 11.9403 7.25853 11.9403 7.0001 11.4645ZM7.0001 11.4645L7.25886 11.9401C7.09677 12.02 6.90343 12.02 6.74135 11.9401L7.0001 11.4645Z" fill="#8E969E"/>
<path fill-rule="evenodd" clip-rule="evenodd" d="M4.1876 2.15001C2.6403 2.15001 1.1501 3.40096 1.1501 5.21435C1.1501 7.17712 2.63307 8.83862 4.00926 9.96858C4.70847 10.5426 5.40572 11.0004 5.92729 11.3145C6.18844 11.4717 6.40661 11.5935 6.56036 11.6765C6.6059 11.701 6.64581 11.7222 6.67952 11.7399L7.0001 11.1502L7.32068 11.7399C7.35439 11.7222 7.39429 11.701 7.43984 11.6765C7.59358 11.5935 7.81175 11.4717 8.07291 11.3145C8.59446 11.0004 9.2917 10.5426 9.99094 9.96858C11.3671 8.83862 12.8501 7.17712 12.8501 5.21435C12.8501 3.40096 11.3599 2.15001 9.8126 2.15001C8.70312 2.15001 7.73027 2.69701 7.12125 3.53129L7.0001 3.69726L6.87894 3.53129C6.26992 2.69701 5.29704 2.15001 4.1876 2.15001ZM6.9622 11.8484L7.0001 11.7786L7.038 11.8484C7.01279 11.8505 6.98741 11.8505 6.9622 11.8484ZM6.67505 12.0747C6.87893 12.1751 7.12126 12.1751 7.32515 12.0747L6.67505 12.0747ZM6.67505 12.0747L6.66897 12.0717L6.53495 12.0056L6.53614 12.0034C6.5023 11.9857 6.46276 11.9647 6.41804 11.9406C6.26069 11.8557 6.03828 11.7315 5.77254 11.5715C5.24254 11.2523 4.53248 10.7863 3.81889 10.2004C2.43402 9.06336 0.850098 7.32352 0.850098 5.21435C0.850098 3.22166 2.48858 1.85001 4.1876 1.85001C5.32775 1.85001 6.33402 2.37959 7.0001 3.19735C7.66617 2.37959 8.67242 1.85001 9.8126 1.85001C11.5116 1.85001 13.1501 3.22166 13.1501 5.21435C13.1501 7.32352 11.5662 9.06335 10.1813 10.2004C9.4677 10.7863 8.75764 11.2523 8.22766 11.5715C7.96192 11.7315 7.73957 11.8556 7.58223 11.9405C7.5375 11.9646 7.49791 11.9857 7.46406 12.0034L7.46526 12.0056L7.32735 12.0736L7.32515 12.0747M1.9751 5.21435C1.9751 3.81339 3.10989 2.92145 4.1876 2.92145C5.2876 2.92145 6.26997 3.67285 6.60292 4.7827C6.65169 4.94529 6.81098 5.06435 7.0001 5.06435C7.18921 5.06435 7.3485 4.9453 7.39728 4.7827C7.73023 3.67285 8.71259 2.92145 9.8126 2.92145C10.8903 2.92145 12.0251 3.81339 12.0251 5.21435C12.0251 6.82303 10.7894 8.28653 9.44676 9.38885C8.78661 9.93091 8.12447 10.366 7.6265 10.6658C7.40236 10.8008 7.21233 10.9078 7.07187 10.9843L7.0001 11.0234L6.92832 10.9843C6.78786 10.9078 6.59784 10.8008 6.37369 10.6658C5.87573 10.366 5.21361 9.93091 4.55344 9.38885C3.21081 8.28654 1.9751 6.82303 1.9751 5.21435ZM4.1876 3.22145C3.26162 3.22145 2.2751 3.9927 2.2751 5.21435C2.2751 6.67671 3.41 8.06191 4.7438 9.15699C5.38958 9.68723 6.0389 10.114 6.52844 10.4088C6.71218 10.5194 6.87238 10.6108 7.0001 10.6815C7.12781 10.6108 7.28801 10.5194 7.47176 10.4088C7.96131 10.114 8.61063 9.68724 9.25638 9.157C10.5902 8.06192 11.7251 6.67671 11.7251 5.21435C11.7251 3.9927 10.7386 3.22145 9.8126 3.22145C8.85281 3.22145 7.98178 3.87838 7.68463 4.8689C7.59542 5.16628 7.31327 5.36435 7.0001 5.36435C6.68692 5.36435 6.40478 5.16628 6.31557 4.8689C6.01842 3.87838 5.14738 3.22145 4.1876 3.22145Z" fill="#8E969E"/>
</svg>
