<svg width="120" height="120" viewBox="0 0 120 120" fill="none" xmlns="http://www.w3.org/2000/svg">
<path fill-rule="evenodd" clip-rule="evenodd" d="M34.6875 22.2859C25.6709 22.2859 16.125 30.2692 16.125 42.8577C16.125 57.5987 26.7928 71.2725 38.8367 81.82C44.7135 86.9671 50.6149 91.104 55.0587 93.958C57.0575 95.2417 58.7507 96.2587 60 96.9848C61.2493 96.2587 62.9425 95.2417 64.9413 93.958C69.3851 91.104 75.2867 86.9671 81.1633 81.82C93.2073 71.2725 103.875 57.5987 103.875 42.8577C103.875 30.2692 94.3291 22.2859 85.3125 22.2859C76.0434 22.2859 67.7032 29.0459 64.8677 39.1276C64.2468 41.3355 62.2603 42.8577 60 42.8577C57.7397 42.8577 55.7532 41.3355 55.1323 39.1276C52.2968 29.0459 43.9565 22.2859 34.6875 22.2859ZM60 102.859C57.6742 107.427 57.6728 107.426 57.6713 107.425L57.6557 107.417L57.6193 107.398L57.4946 107.331C57.3886 107.274 57.2375 107.193 57.0442 107.086C56.6577 106.874 56.1021 106.564 55.4019 106.162C54.0019 105.356 52.0195 104.175 49.6483 102.652C44.9163 99.6132 38.5834 95.1786 32.2258 89.6112C19.801 78.7294 6 62.403 6 42.8577C6 24.5885 20.0791 12 34.6875 12C45.1322 12 54.282 17.4962 60 25.8513C65.718 17.4962 74.8676 12 85.3125 12C99.9209 12 114 24.5885 114 42.8577C114 62.403 100.199 78.7294 87.7742 89.6112C81.4164 95.1786 75.0835 99.6132 70.3517 102.652C67.9805 104.175 65.9981 105.356 64.5981 106.162C63.8979 106.564 63.3424 106.874 62.9558 107.086C62.7625 107.193 62.6114 107.274 62.5054 107.331L62.3807 107.398L62.3443 107.417L62.3288 107.425C62.3272 107.426 62.3258 107.427 60 102.859ZM60 102.859L62.3288 107.425C60.87 108.192 59.13 108.192 57.6713 107.425L60 102.859Z" fill="#DAE0E6"/>
</svg>
