<svg width="20" height="20" viewBox="0 0 20 20" fill="none" xmlns="http://www.w3.org/2000/svg">
<path fill-rule="evenodd" clip-rule="evenodd" d="M15 8.75C16.3807 8.75 17.5 9.86929 17.5 11.25V16.25C17.5 17.6307 16.3807 18.75 15 18.75H5C3.61929 18.75 2.5 17.6307 2.5 16.25V11.25C2.5 9.86929 3.61929 8.75 5 8.75V6.25C5 3.48858 7.23858 1.25 10 1.25C12.7614 1.25 15 3.48858 15 6.25V8.75ZM10 2.91667C11.8409 2.91667 13.3333 4.40905 13.3333 6.25V8.75H6.66667V6.25C6.66667 4.40905 8.15905 2.91667 10 2.91667ZM15 10.4167H5C4.53976 10.4167 4.16667 10.7898 4.16667 11.25V16.25C4.16667 16.7102 4.53976 17.0833 5 17.0833H15C15.4602 17.0833 15.8333 16.7102 15.8333 16.25V11.25C15.8333 10.7898 15.4602 10.4167 15 10.4167Z" fill="#DAE0E6"/>
</svg>
