<svg width="16" height="19" viewBox="0 0 16 19" fill="none" xmlns="http://www.w3.org/2000/svg">
<path fill-rule="evenodd" clip-rule="evenodd" d="M11.5601 8.56011C11.5601 10.4011 10.0677 11.8934 8.22679 11.8934C6.38584 11.8934 4.89345 10.4011 4.89345 8.56011C4.89345 6.71916 6.38584 5.22678 8.22679 5.22678C10.0677 5.22678 11.5601 6.71916 11.5601 8.56011ZM9.89345 8.56011C9.89345 9.48059 9.14726 10.2268 8.22679 10.2268C7.30631 10.2268 6.56012 9.48059 6.56012 8.56011C6.56012 7.63964 7.30631 6.89344 8.22679 6.89344C9.14726 6.89344 9.89345 7.63964 9.89345 8.56011Z" fill="#DAE0E6"/>
<path fill-rule="evenodd" clip-rule="evenodd" d="M2.82847 13.7652C-0.171464 10.9091 -0.288014 6.16175 2.56815 3.16182C5.42431 0.161879 10.1716 0.0453293 13.1716 2.90149C16.1715 5.75766 16.288 10.505 13.4319 13.5049L8.26033 18.9368L2.82847 13.7652ZM12.2248 12.3557L8.20248 16.5805L3.9777 12.5581C1.64442 10.3367 1.55377 6.64433 3.77523 4.31105C5.99669 1.97776 9.68904 1.88711 12.0223 4.10857C14.3556 6.33003 14.4463 10.0224 12.2248 12.3557Z" fill="#DAE0E6"/>
</svg>
