<svg width="94" height="14" viewBox="0 0 94 14" fill="none" xmlns="http://www.w3.org/2000/svg">
<g clip-path="url(#clip0_146_81)">
<path d="M13.9634 5.36976C13.8712 5.08628 13.6198 4.88558 13.3235 4.85877L9.28208 4.49186L7.68491 0.752541C7.56698 0.477817 7.29867 0.300507 7.00002 0.300507C6.70137 0.300507 6.43295 0.477817 6.31577 0.752541L4.71859 4.49186L0.676564 4.85877C0.380264 4.88611 0.129359 5.08681 0.0366454 5.36976C-0.0555345 5.65324 0.0295957 5.96418 0.25369 6.16071L3.30866 8.83948L2.4079 12.8067C2.342 13.0985 2.45522 13.4001 2.69726 13.5751C2.82736 13.6696 2.98021 13.7168 3.13359 13.7168C3.2654 13.7168 3.39731 13.6818 3.51513 13.6113L7.00002 11.5275L10.4843 13.6113C10.7399 13.764 11.0613 13.75 11.3028 13.5751C11.5448 13.4001 11.658 13.0985 11.5921 12.8067L10.6914 8.83948L13.7463 6.16071C13.9703 5.96418 14.0556 5.65388 13.9634 5.36976Z" fill="#F2994A"/>
</g>
<g clip-path="url(#clip1_146_81)">
<path d="M33.9634 5.36976C33.8712 5.08628 33.6198 4.88558 33.3235 4.85877L29.2821 4.49186L27.6849 0.752541C27.567 0.477817 27.2987 0.300507 27 0.300507C26.7014 0.300507 26.4329 0.477817 26.3158 0.752541L24.7186 4.49186L20.6766 4.85877C20.3803 4.88611 20.1294 5.08681 20.0366 5.36976C19.9445 5.65324 20.0296 5.96418 20.2537 6.16071L23.3087 8.83948L22.4079 12.8067C22.342 13.0985 22.4552 13.4001 22.6973 13.5751C22.8274 13.6696 22.9802 13.7168 23.1336 13.7168C23.2654 13.7168 23.3973 13.6818 23.5151 13.6113L27 11.5275L30.4843 13.6113C30.7399 13.764 31.0613 13.75 31.3028 13.5751C31.5448 13.4001 31.658 13.0985 31.5921 12.8067L30.6914 8.83948L33.7463 6.16071C33.9703 5.96418 34.0556 5.65388 33.9634 5.36976Z" fill="#F2994A"/>
</g>
<g clip-path="url(#clip2_146_81)">
<path d="M53.9634 5.36976C53.8712 5.08628 53.6198 4.88558 53.3235 4.85877L49.2821 4.49186L47.6849 0.752541C47.567 0.477817 47.2987 0.300507 47 0.300507C46.7014 0.300507 46.4329 0.477817 46.3158 0.752541L44.7186 4.49186L40.6766 4.85877C40.3803 4.88611 40.1294 5.08681 40.0366 5.36976C39.9445 5.65324 40.0296 5.96418 40.2537 6.16071L43.3087 8.83948L42.4079 12.8067C42.342 13.0985 42.4552 13.4001 42.6973 13.5751C42.8274 13.6696 42.9802 13.7168 43.1336 13.7168C43.2654 13.7168 43.3973 13.6818 43.5151 13.6113L47 11.5275L50.4843 13.6113C50.7399 13.764 51.0613 13.75 51.3028 13.5751C51.5448 13.4001 51.658 13.0985 51.5921 12.8067L50.6914 8.83948L53.7463 6.16071C53.9703 5.96418 54.0556 5.65388 53.9634 5.36976Z" fill="#F2994A"/>
</g>
<g clip-path="url(#clip3_146_81)">
<path d="M73.9634 5.36976C73.8712 5.08628 73.6198 4.88558 73.3235 4.85877L69.2821 4.49186L67.6849 0.752541C67.567 0.477817 67.2987 0.300507 67 0.300507C66.7014 0.300507 66.4329 0.477817 66.3158 0.752541L64.7186 4.49186L60.6766 4.85877C60.3803 4.88611 60.1294 5.08681 60.0366 5.36976C59.9445 5.65324 60.0296 5.96418 60.2537 6.16071L63.3087 8.83948L62.4079 12.8067C62.342 13.0985 62.4552 13.4001 62.6973 13.5751C62.8274 13.6696 62.9802 13.7168 63.1336 13.7168C63.2654 13.7168 63.3973 13.6818 63.5151 13.6113L67 11.5275L70.4843 13.6113C70.7399 13.764 71.0613 13.75 71.3028 13.5751C71.5448 13.4001 71.658 13.0985 71.5921 12.8067L70.6914 8.83948L73.7463 6.16071C73.9703 5.96418 74.0556 5.65388 73.9634 5.36976Z" fill="#F2994A"/>
</g>
<g clip-path="url(#clip4_146_81)">
<path d="M93.9634 5.36976C93.8712 5.08628 93.6198 4.88558 93.3235 4.85877L89.2821 4.49186L87.6849 0.752541C87.567 0.477817 87.2987 0.300507 87 0.300507C86.7014 0.300507 86.4329 0.477817 86.3158 0.752541L84.7186 4.49186L80.6766 4.85877C80.3803 4.88611 80.1294 5.08681 80.0366 5.36976C79.9445 5.65324 80.0296 5.96418 80.2537 6.16071L83.3087 8.83948L82.4079 12.8067C82.342 13.0985 82.4552 13.4001 82.6973 13.5751C82.8274 13.6696 82.9802 13.7168 83.1336 13.7168C83.2654 13.7168 83.3973 13.6818 83.5151 13.6113L87 11.5275L90.4843 13.6113C90.7399 13.764 91.0613 13.75 91.3028 13.5751C91.5448 13.4001 91.658 13.0985 91.5921 12.8067L90.6914 8.83948L93.7463 6.16071C93.9703 5.96418 94.0556 5.65388 93.9634 5.36976Z" fill="#DAE0E6"/>
</g>
<defs>
<clipPath id="clip0_146_81">
<rect width="14" height="14" fill="white"/>
</clipPath>
<clipPath id="clip1_146_81">
<rect width="14" height="14" fill="white" transform="translate(20)"/>
</clipPath>
<clipPath id="clip2_146_81">
<rect width="14" height="14" fill="white" transform="translate(40)"/>
</clipPath>
<clipPath id="clip3_146_81">
<rect width="14" height="14" fill="white" transform="translate(60)"/>
</clipPath>
<clipPath id="clip4_146_81">
<rect width="14" height="14" fill="white" transform="translate(80)"/>
</clipPath>
</defs>
</svg>
