<svg width="10" height="10" viewBox="0 0 10 10" fill="none" xmlns="http://www.w3.org/2000/svg">
<path d="M8.07232 4.68784L4.51222 1.1278C4.42988 1.0454 4.31996 1 4.20276 1C4.08556 1 3.97564 1.0454 3.8933 1.1278L3.63112 1.38992C3.46052 1.56071 3.46052 1.8383 3.63112 2.00884L6.62063 4.99834L3.6278 7.99116C3.54546 8.07357 3.5 8.18342 3.5 8.30056C3.5 8.41783 3.54546 8.52768 3.6278 8.61015L3.88998 8.8722C3.97239 8.9546 4.08224 9 4.19944 9C4.31664 9 4.42656 8.9546 4.5089 8.8722L8.07232 5.30891C8.15486 5.22624 8.20019 5.11587 8.19993 4.99854C8.20019 4.88075 8.15486 4.77044 8.07232 4.68784Z" fill="#DAE0E6"/>
</svg>
