<svg width="14" height="14" viewBox="0 0 14 14" fill="none" xmlns="http://www.w3.org/2000/svg">
<path d="M10 2C10 1.44772 10.4477 1 11 1C11.5523 1 12 1.44772 12 2V12C12 12.5523 11.5523 13 11 13C10.4477 13 10 12.5523 10 12V2Z" fill="#FFAE00"/>
<path d="M2 10C2 9.44771 2.44772 9 3 9C3.55228 9 4 9.44771 4 10V12C4 12.5523 3.55228 13 3 13C2.44772 13 2 12.5523 2 12V10Z" fill="#FFAE00"/>
<path d="M7 5C6.44772 5 6 5.44772 6 6V12C6 12.5523 6.44772 13 7 13C7.55228 13 8 12.5523 8 12V6C8 5.44772 7.55228 5 7 5Z" fill="#FFAE00"/>
</svg>
