<svg width="20" height="20" viewBox="0 0 20 20" fill="none" xmlns="http://www.w3.org/2000/svg">
<path d="M13.3337 10.8333H11.667C11.667 11.7538 10.9208 12.5 10.0003 12.5C9.07985 12.5 8.33366 11.7538 8.33366 10.8333H6.66699C6.66699 12.6743 8.15938 14.1667 10.0003 14.1667C11.8413 14.1667 13.3337 12.6743 13.3337 10.8333Z" fill="#DAE0E6"/>
<path d="M8.33366 8.33332C8.33366 8.79356 7.96056 9.16666 7.50033 9.16666C7.04009 9.16666 6.66699 8.79356 6.66699 8.33332C6.66699 7.87309 7.04009 7.49999 7.50033 7.49999C7.96056 7.49999 8.33366 7.87309 8.33366 8.33332Z" fill="#DAE0E6"/>
<path d="M12.5003 9.16666C12.9606 9.16666 13.3337 8.79356 13.3337 8.33332C13.3337 7.87309 12.9606 7.49999 12.5003 7.49999C12.0401 7.49999 11.667 7.87309 11.667 8.33332C11.667 8.79356 12.0401 9.16666 12.5003 9.16666Z" fill="#DAE0E6"/>
<path fill-rule="evenodd" clip-rule="evenodd" d="M18.3337 9.99999C18.3337 14.6024 14.6027 18.3333 10.0003 18.3333C5.39795 18.3333 1.66699 14.6024 1.66699 9.99999C1.66699 5.39762 5.39795 1.66666 10.0003 1.66666C14.6027 1.66666 18.3337 5.39762 18.3337 9.99999ZM16.667 9.99999C16.667 13.6819 13.6822 16.6667 10.0003 16.6667C6.31843 16.6667 3.33366 13.6819 3.33366 9.99999C3.33366 6.31809 6.31843 3.33332 10.0003 3.33332C13.6822 3.33332 16.667 6.31809 16.667 9.99999Z" fill="#DAE0E6"/>
</svg>
