<svg width="50" height="50" viewBox="0 0 50 50" fill="none" xmlns="http://www.w3.org/2000/svg">
<circle cx="25" cy="25" r="25" transform="matrix(-1 0 0 1 50 0)" fill="#F2F5F7"/>
<path d="M18.8554 24.3757L25.9756 17.2556C26.1402 17.0908 26.3601 17 26.5945 17C26.8289 17 27.0487 17.0908 27.2134 17.2556L27.7378 17.7798C28.079 18.1214 28.079 18.6766 27.7378 19.0177L21.7587 24.9967L27.7444 30.9823C27.9091 31.1471 28 31.3668 28 31.6011C28 31.8357 27.9091 32.0554 27.7444 32.2203L27.22 32.7444C27.0552 32.9092 26.8355 33 26.6011 33C26.3667 33 26.1469 32.9092 25.9822 32.7444L18.8554 25.6178C18.6903 25.4525 18.5996 25.2317 18.6001 24.9971C18.5996 24.7615 18.6903 24.5409 18.8554 24.3757Z" fill="#FFAE00"/>
</svg>
