<svg width="50" height="50" viewBox="0 0 50 50" fill="none" xmlns="http://www.w3.org/2000/svg">
<circle cx="25" cy="25" r="25" fill="#F2F5F7"/>
<path d="M31.1446 24.3757L24.0244 17.2556C23.8598 17.0908 23.6399 17 23.4055 17C23.1711 17 22.9513 17.0908 22.7866 17.2556L22.2622 17.7798C21.921 18.1214 21.921 18.6766 22.2622 19.0177L28.2413 24.9967L22.2556 30.9823C22.0909 31.1471 22 31.3668 22 31.6011C22 31.8357 22.0909 32.0554 22.2556 32.2203L22.78 32.7444C22.9448 32.9092 23.1645 33 23.3989 33C23.6333 33 23.8531 32.9092 24.0178 32.7444L31.1446 25.6178C31.3097 25.4525 31.4004 25.2317 31.3999 24.9971C31.4004 24.7615 31.3097 24.5409 31.1446 24.3757Z" fill="#FFAE00"/>
</svg>
