<svg width="330" height="330" viewBox="0 0 330 330" fill="none" xmlns="http://www.w3.org/2000/svg">
<rect width="330" height="330" rx="5" fill="white"/>
<rect x="0.5" y="0.5" width="329" height="329" rx="4.5" stroke="#171F26" stroke-opacity="0.1"/>
<g clip-path="url(#clip0_146_1628)">
<path d="M43.9634 115.37C43.8712 115.086 43.6198 114.886 43.3235 114.859L39.2821 114.492L37.6849 110.753C37.567 110.478 37.2987 110.301 37 110.301C36.7014 110.301 36.4329 110.478 36.3158 110.753L34.7186 114.492L30.6766 114.859C30.3803 114.886 30.1294 115.087 30.0366 115.37C29.9445 115.653 30.0296 115.964 30.2537 116.161L33.3087 118.84L32.4079 122.807C32.342 123.098 32.4552 123.4 32.6973 123.575C32.8274 123.67 32.9802 123.717 33.1336 123.717C33.2654 123.717 33.3973 123.682 33.5151 123.611L37 121.528L40.4843 123.611C40.7399 123.764 41.0613 123.75 41.3028 123.575C41.5448 123.4 41.658 123.098 41.5921 122.807L40.6914 118.84L43.7463 116.161C43.9703 115.964 44.0556 115.654 43.9634 115.37Z" fill="#F2994A"/>
</g>
<g clip-path="url(#clip1_146_1628)">
<path d="M63.9634 115.37C63.8712 115.086 63.6198 114.886 63.3235 114.859L59.2821 114.492L57.6849 110.753C57.567 110.478 57.2987 110.301 57 110.301C56.7014 110.301 56.4329 110.478 56.3158 110.753L54.7186 114.492L50.6766 114.859C50.3803 114.886 50.1294 115.087 50.0366 115.37C49.9445 115.653 50.0296 115.964 50.2537 116.161L53.3087 118.84L52.4079 122.807C52.342 123.098 52.4552 123.4 52.6973 123.575C52.8274 123.67 52.9802 123.717 53.1336 123.717C53.2654 123.717 53.3973 123.682 53.5151 123.611L57 121.528L60.4843 123.611C60.7399 123.764 61.0613 123.75 61.3028 123.575C61.5448 123.4 61.658 123.098 61.5921 122.807L60.6914 118.84L63.7463 116.161C63.9703 115.964 64.0556 115.654 63.9634 115.37Z" fill="#F2994A"/>
</g>
<g clip-path="url(#clip2_146_1628)">
<path d="M83.9634 115.37C83.8712 115.086 83.6198 114.886 83.3235 114.859L79.2821 114.492L77.6849 110.753C77.567 110.478 77.2987 110.301 77 110.301C76.7014 110.301 76.4329 110.478 76.3158 110.753L74.7186 114.492L70.6766 114.859C70.3803 114.886 70.1294 115.087 70.0366 115.37C69.9445 115.653 70.0296 115.964 70.2537 116.161L73.3087 118.84L72.4079 122.807C72.342 123.098 72.4552 123.4 72.6973 123.575C72.8274 123.67 72.9802 123.717 73.1336 123.717C73.2654 123.717 73.3973 123.682 73.5151 123.611L77 121.528L80.4843 123.611C80.7399 123.764 81.0613 123.75 81.3028 123.575C81.5448 123.4 81.658 123.098 81.5921 122.807L80.6914 118.84L83.7463 116.161C83.9703 115.964 84.0556 115.654 83.9634 115.37Z" fill="#F2994A"/>
</g>
<g clip-path="url(#clip3_146_1628)">
<path d="M103.963 115.37C103.871 115.086 103.62 114.886 103.323 114.859L99.2821 114.492L97.6849 110.753C97.567 110.478 97.2987 110.301 97 110.301C96.7014 110.301 96.4329 110.478 96.3158 110.753L94.7186 114.492L90.6766 114.859C90.3803 114.886 90.1294 115.087 90.0366 115.37C89.9445 115.653 90.0296 115.964 90.2537 116.161L93.3087 118.84L92.4079 122.807C92.342 123.098 92.4552 123.4 92.6973 123.575C92.8274 123.67 92.9802 123.717 93.1336 123.717C93.2654 123.717 93.3973 123.682 93.5151 123.611L97 121.528L100.484 123.611C100.74 123.764 101.061 123.75 101.303 123.575C101.545 123.4 101.658 123.098 101.592 122.807L100.691 118.84L103.746 116.161C103.97 115.964 104.056 115.654 103.963 115.37Z" fill="#F2994A"/>
</g>
<g clip-path="url(#clip4_146_1628)">
<path d="M123.963 115.37C123.871 115.086 123.62 114.886 123.323 114.859L119.282 114.492L117.685 110.753C117.567 110.478 117.299 110.301 117 110.301C116.701 110.301 116.433 110.478 116.316 110.753L114.719 114.492L110.677 114.859C110.38 114.886 110.129 115.087 110.037 115.37C109.944 115.653 110.03 115.964 110.254 116.161L113.309 118.84L112.408 122.807C112.342 123.098 112.455 123.4 112.697 123.575C112.827 123.67 112.98 123.717 113.134 123.717C113.265 123.717 113.397 123.682 113.515 123.611L117 121.528L120.484 123.611C120.74 123.764 121.061 123.75 121.303 123.575C121.545 123.4 121.658 123.098 121.592 122.807L120.691 118.84L123.746 116.161C123.97 115.964 124.056 115.654 123.963 115.37Z" fill="#F2994A"/>
</g>
<g clip-path="url(#clip5_146_1628)">
<path d="M43.9634 159.37C43.8712 159.086 43.6198 158.886 43.3235 158.859L39.2821 158.492L37.6849 154.753C37.567 154.478 37.2987 154.301 37 154.301C36.7014 154.301 36.4329 154.478 36.3158 154.753L34.7186 158.492L30.6766 158.859C30.3803 158.886 30.1294 159.087 30.0366 159.37C29.9445 159.653 30.0296 159.964 30.2537 160.161L33.3087 162.84L32.4079 166.807C32.342 167.098 32.4552 167.4 32.6973 167.575C32.8274 167.67 32.9802 167.717 33.1336 167.717C33.2654 167.717 33.3973 167.682 33.5151 167.611L37 165.528L40.4843 167.611C40.7399 167.764 41.0613 167.75 41.3028 167.575C41.5448 167.4 41.658 167.098 41.5921 166.807L40.6914 162.84L43.7463 160.161C43.9703 159.964 44.0556 159.654 43.9634 159.37Z" fill="#F2994A"/>
</g>
<g clip-path="url(#clip6_146_1628)">
<path d="M63.9634 159.37C63.8712 159.086 63.6198 158.886 63.3235 158.859L59.2821 158.492L57.6849 154.753C57.567 154.478 57.2987 154.301 57 154.301C56.7014 154.301 56.4329 154.478 56.3158 154.753L54.7186 158.492L50.6766 158.859C50.3803 158.886 50.1294 159.087 50.0366 159.37C49.9445 159.653 50.0296 159.964 50.2537 160.161L53.3087 162.84L52.4079 166.807C52.342 167.098 52.4552 167.4 52.6973 167.575C52.8274 167.67 52.9802 167.717 53.1336 167.717C53.2654 167.717 53.3973 167.682 53.5151 167.611L57 165.528L60.4843 167.611C60.7399 167.764 61.0613 167.75 61.3028 167.575C61.5448 167.4 61.658 167.098 61.5921 166.807L60.6914 162.84L63.7463 160.161C63.9703 159.964 64.0556 159.654 63.9634 159.37Z" fill="#F2994A"/>
</g>
<g clip-path="url(#clip7_146_1628)">
<path d="M83.9634 159.37C83.8712 159.086 83.6198 158.886 83.3235 158.859L79.2821 158.492L77.6849 154.753C77.567 154.478 77.2987 154.301 77 154.301C76.7014 154.301 76.4329 154.478 76.3158 154.753L74.7186 158.492L70.6766 158.859C70.3803 158.886 70.1294 159.087 70.0366 159.37C69.9445 159.653 70.0296 159.964 70.2537 160.161L73.3087 162.84L72.4079 166.807C72.342 167.098 72.4552 167.4 72.6973 167.575C72.8274 167.67 72.9802 167.717 73.1336 167.717C73.2654 167.717 73.3973 167.682 73.5151 167.611L77 165.528L80.4843 167.611C80.7399 167.764 81.0613 167.75 81.3028 167.575C81.5448 167.4 81.658 167.098 81.5921 166.807L80.6914 162.84L83.7463 160.161C83.9703 159.964 84.0556 159.654 83.9634 159.37Z" fill="#F2994A"/>
</g>
<g clip-path="url(#clip8_146_1628)">
<path d="M103.963 159.37C103.871 159.086 103.62 158.886 103.323 158.859L99.2821 158.492L97.6849 154.753C97.567 154.478 97.2987 154.301 97 154.301C96.7014 154.301 96.4329 154.478 96.3158 154.753L94.7186 158.492L90.6766 158.859C90.3803 158.886 90.1294 159.087 90.0366 159.37C89.9445 159.653 90.0296 159.964 90.2537 160.161L93.3087 162.84L92.4079 166.807C92.342 167.098 92.4552 167.4 92.6973 167.575C92.8274 167.67 92.9802 167.717 93.1336 167.717C93.2654 167.717 93.3973 167.682 93.5151 167.611L97 165.528L100.484 167.611C100.74 167.764 101.061 167.75 101.303 167.575C101.545 167.4 101.658 167.098 101.592 166.807L100.691 162.84L103.746 160.161C103.97 159.964 104.056 159.654 103.963 159.37Z" fill="#F2994A"/>
</g>
<g clip-path="url(#clip9_146_1628)">
<path d="M123.963 159.37C123.871 159.086 123.62 158.886 123.323 158.859L119.282 158.492L117.685 154.753C117.567 154.478 117.299 154.301 117 154.301C116.701 154.301 116.433 154.478 116.316 154.753L114.719 158.492L110.677 158.859C110.38 158.886 110.129 159.087 110.037 159.37C109.944 159.653 110.03 159.964 110.254 160.161L113.309 162.84L112.408 166.807C112.342 167.098 112.455 167.4 112.697 167.575C112.827 167.67 112.98 167.717 113.134 167.717C113.265 167.717 113.397 167.682 113.515 167.611L117 165.528L120.484 167.611C120.74 167.764 121.061 167.75 121.303 167.575C121.545 167.4 121.658 167.098 121.592 166.807L120.691 162.84L123.746 160.161C123.97 159.964 124.056 159.654 123.963 159.37Z" fill="#DAE0E6"/>
</g>
<g clip-path="url(#clip10_146_1628)">
<path d="M43.9634 203.37C43.8712 203.086 43.6198 202.886 43.3235 202.859L39.2821 202.492L37.6849 198.753C37.567 198.478 37.2987 198.301 37 198.301C36.7014 198.301 36.4329 198.478 36.3158 198.753L34.7186 202.492L30.6766 202.859C30.3803 202.886 30.1294 203.087 30.0366 203.37C29.9445 203.653 30.0296 203.964 30.2537 204.161L33.3087 206.84L32.4079 210.807C32.342 211.098 32.4552 211.4 32.6973 211.575C32.8274 211.67 32.9802 211.717 33.1336 211.717C33.2654 211.717 33.3973 211.682 33.5151 211.611L37 209.528L40.4843 211.611C40.7399 211.764 41.0613 211.75 41.3028 211.575C41.5448 211.4 41.658 211.098 41.5921 210.807L40.6914 206.84L43.7463 204.161C43.9703 203.964 44.0556 203.654 43.9634 203.37Z" fill="#F2994A"/>
</g>
<g clip-path="url(#clip11_146_1628)">
<path d="M63.9634 203.37C63.8712 203.086 63.6198 202.886 63.3235 202.859L59.2821 202.492L57.6849 198.753C57.567 198.478 57.2987 198.301 57 198.301C56.7014 198.301 56.4329 198.478 56.3158 198.753L54.7186 202.492L50.6766 202.859C50.3803 202.886 50.1294 203.087 50.0366 203.37C49.9445 203.653 50.0296 203.964 50.2537 204.161L53.3087 206.84L52.4079 210.807C52.342 211.098 52.4552 211.4 52.6973 211.575C52.8274 211.67 52.9802 211.717 53.1336 211.717C53.2654 211.717 53.3973 211.682 53.5151 211.611L57 209.528L60.4843 211.611C60.7399 211.764 61.0613 211.75 61.3028 211.575C61.5448 211.4 61.658 211.098 61.5921 210.807L60.6914 206.84L63.7463 204.161C63.9703 203.964 64.0556 203.654 63.9634 203.37Z" fill="#F2994A"/>
</g>
<g clip-path="url(#clip12_146_1628)">
<path d="M83.9634 203.37C83.8712 203.086 83.6198 202.886 83.3235 202.859L79.2821 202.492L77.6849 198.753C77.567 198.478 77.2987 198.301 77 198.301C76.7014 198.301 76.4329 198.478 76.3158 198.753L74.7186 202.492L70.6766 202.859C70.3803 202.886 70.1294 203.087 70.0366 203.37C69.9445 203.653 70.0296 203.964 70.2537 204.161L73.3087 206.84L72.4079 210.807C72.342 211.098 72.4552 211.4 72.6973 211.575C72.8274 211.67 72.9802 211.717 73.1336 211.717C73.2654 211.717 73.3973 211.682 73.5151 211.611L77 209.528L80.4843 211.611C80.7399 211.764 81.0613 211.75 81.3028 211.575C81.5448 211.4 81.658 211.098 81.5921 210.807L80.6914 206.84L83.7463 204.161C83.9703 203.964 84.0556 203.654 83.9634 203.37Z" fill="#F2994A"/>
</g>
<g clip-path="url(#clip13_146_1628)">
<path d="M103.963 203.37C103.871 203.086 103.62 202.886 103.323 202.859L99.2821 202.492L97.6849 198.753C97.567 198.478 97.2987 198.301 97 198.301C96.7014 198.301 96.4329 198.478 96.3158 198.753L94.7186 202.492L90.6766 202.859C90.3803 202.886 90.1294 203.087 90.0366 203.37C89.9445 203.653 90.0296 203.964 90.2537 204.161L93.3087 206.84L92.4079 210.807C92.342 211.098 92.4552 211.4 92.6973 211.575C92.8274 211.67 92.9802 211.717 93.1336 211.717C93.2654 211.717 93.3973 211.682 93.5151 211.611L97 209.528L100.484 211.611C100.74 211.764 101.061 211.75 101.303 211.575C101.545 211.4 101.658 211.098 101.592 210.807L100.691 206.84L103.746 204.161C103.97 203.964 104.056 203.654 103.963 203.37Z" fill="#DAE0E6"/>
</g>
<g clip-path="url(#clip14_146_1628)">
<path d="M123.963 203.37C123.871 203.086 123.62 202.886 123.323 202.859L119.282 202.492L117.685 198.753C117.567 198.478 117.299 198.301 117 198.301C116.701 198.301 116.433 198.478 116.316 198.753L114.719 202.492L110.677 202.859C110.38 202.886 110.129 203.087 110.037 203.37C109.944 203.653 110.03 203.964 110.254 204.161L113.309 206.84L112.408 210.807C112.342 211.098 112.455 211.4 112.697 211.575C112.827 211.67 112.98 211.717 113.134 211.717C113.265 211.717 113.397 211.682 113.515 211.611L117 209.528L120.484 211.611C120.74 211.764 121.061 211.75 121.303 211.575C121.545 211.4 121.658 211.098 121.592 210.807L120.691 206.84L123.746 204.161C123.97 203.964 124.056 203.654 123.963 203.37Z" fill="#DAE0E6"/>
</g>
<g clip-path="url(#clip15_146_1628)">
<path d="M43.9634 247.37C43.8712 247.086 43.6198 246.886 43.3235 246.859L39.2821 246.492L37.6849 242.753C37.567 242.478 37.2987 242.301 37 242.301C36.7014 242.301 36.4329 242.478 36.3158 242.753L34.7186 246.492L30.6766 246.859C30.3803 246.886 30.1294 247.087 30.0366 247.37C29.9445 247.653 30.0296 247.964 30.2537 248.161L33.3087 250.84L32.4079 254.807C32.342 255.098 32.4552 255.4 32.6973 255.575C32.8274 255.67 32.9802 255.717 33.1336 255.717C33.2654 255.717 33.3973 255.682 33.5151 255.611L37 253.528L40.4843 255.611C40.7399 255.764 41.0613 255.75 41.3028 255.575C41.5448 255.4 41.658 255.098 41.5921 254.807L40.6914 250.84L43.7463 248.161C43.9703 247.964 44.0556 247.654 43.9634 247.37Z" fill="#F2994A"/>
</g>
<g clip-path="url(#clip16_146_1628)">
<path d="M63.9634 247.37C63.8712 247.086 63.6198 246.886 63.3235 246.859L59.2821 246.492L57.6849 242.753C57.567 242.478 57.2987 242.301 57 242.301C56.7014 242.301 56.4329 242.478 56.3158 242.753L54.7186 246.492L50.6766 246.859C50.3803 246.886 50.1294 247.087 50.0366 247.37C49.9445 247.653 50.0296 247.964 50.2537 248.161L53.3087 250.84L52.4079 254.807C52.342 255.098 52.4552 255.4 52.6973 255.575C52.8274 255.67 52.9802 255.717 53.1336 255.717C53.2654 255.717 53.3973 255.682 53.5151 255.611L57 253.528L60.4843 255.611C60.7399 255.764 61.0613 255.75 61.3028 255.575C61.5448 255.4 61.658 255.098 61.5921 254.807L60.6914 250.84L63.7463 248.161C63.9703 247.964 64.0556 247.654 63.9634 247.37Z" fill="#F2994A"/>
</g>
<g clip-path="url(#clip17_146_1628)">
<path d="M83.9634 247.37C83.8712 247.086 83.6198 246.886 83.3235 246.859L79.2821 246.492L77.6849 242.753C77.567 242.478 77.2987 242.301 77 242.301C76.7014 242.301 76.4329 242.478 76.3158 242.753L74.7186 246.492L70.6766 246.859C70.3803 246.886 70.1294 247.087 70.0366 247.37C69.9445 247.653 70.0296 247.964 70.2537 248.161L73.3087 250.84L72.4079 254.807C72.342 255.098 72.4552 255.4 72.6973 255.575C72.8274 255.67 72.9802 255.717 73.1336 255.717C73.2654 255.717 73.3973 255.682 73.5151 255.611L77 253.528L80.4843 255.611C80.7399 255.764 81.0613 255.75 81.3028 255.575C81.5448 255.4 81.658 255.098 81.5921 254.807L80.6914 250.84L83.7463 248.161C83.9703 247.964 84.0556 247.654 83.9634 247.37Z" fill="#DAE0E6"/>
</g>
<g clip-path="url(#clip18_146_1628)">
<path d="M103.963 247.37C103.871 247.086 103.62 246.886 103.323 246.859L99.2821 246.492L97.6849 242.753C97.567 242.478 97.2987 242.301 97 242.301C96.7014 242.301 96.4329 242.478 96.3158 242.753L94.7186 246.492L90.6766 246.859C90.3803 246.886 90.1294 247.087 90.0366 247.37C89.9445 247.653 90.0296 247.964 90.2537 248.161L93.3087 250.84L92.4079 254.807C92.342 255.098 92.4552 255.4 92.6973 255.575C92.8274 255.67 92.9802 255.717 93.1336 255.717C93.2654 255.717 93.3973 255.682 93.5151 255.611L97 253.528L100.484 255.611C100.74 255.764 101.061 255.75 101.303 255.575C101.545 255.4 101.658 255.098 101.592 254.807L100.691 250.84L103.746 248.161C103.97 247.964 104.056 247.654 103.963 247.37Z" fill="#DAE0E6"/>
</g>
<g clip-path="url(#clip19_146_1628)">
<path d="M123.963 247.37C123.871 247.086 123.62 246.886 123.323 246.859L119.282 246.492L117.685 242.753C117.567 242.478 117.299 242.301 117 242.301C116.701 242.301 116.433 242.478 116.316 242.753L114.719 246.492L110.677 246.859C110.38 246.886 110.129 247.087 110.037 247.37C109.944 247.653 110.03 247.964 110.254 248.161L113.309 250.84L112.408 254.807C112.342 255.098 112.455 255.4 112.697 255.575C112.827 255.67 112.98 255.717 113.134 255.717C113.265 255.717 113.397 255.682 113.515 255.611L117 253.528L120.484 255.611C120.74 255.764 121.061 255.75 121.303 255.575C121.545 255.4 121.658 255.098 121.592 254.807L120.691 250.84L123.746 248.161C123.97 247.964 124.056 247.654 123.963 247.37Z" fill="#DAE0E6"/>
</g>
<g clip-path="url(#clip20_146_1628)">
<path d="M43.9634 291.37C43.8712 291.086 43.6198 290.886 43.3235 290.859L39.2821 290.492L37.6849 286.753C37.567 286.478 37.2987 286.301 37 286.301C36.7014 286.301 36.4329 286.478 36.3158 286.753L34.7186 290.492L30.6766 290.859C30.3803 290.886 30.1294 291.087 30.0366 291.37C29.9445 291.653 30.0296 291.964 30.2537 292.161L33.3087 294.84L32.4079 298.807C32.342 299.098 32.4552 299.4 32.6973 299.575C32.8274 299.67 32.9802 299.717 33.1336 299.717C33.2654 299.717 33.3973 299.682 33.5151 299.611L37 297.528L40.4843 299.611C40.7399 299.764 41.0613 299.75 41.3028 299.575C41.5448 299.4 41.658 299.098 41.5921 298.807L40.6914 294.84L43.7463 292.161C43.9703 291.964 44.0556 291.654 43.9634 291.37Z" fill="#F2994A"/>
</g>
<g clip-path="url(#clip21_146_1628)">
<path d="M63.9634 291.37C63.8712 291.086 63.6198 290.886 63.3235 290.859L59.2821 290.492L57.6849 286.753C57.567 286.478 57.2987 286.301 57 286.301C56.7014 286.301 56.4329 286.478 56.3158 286.753L54.7186 290.492L50.6766 290.859C50.3803 290.886 50.1294 291.087 50.0366 291.37C49.9445 291.653 50.0296 291.964 50.2537 292.161L53.3087 294.84L52.4079 298.807C52.342 299.098 52.4552 299.4 52.6973 299.575C52.8274 299.67 52.9802 299.717 53.1336 299.717C53.2654 299.717 53.3973 299.682 53.5151 299.611L57 297.528L60.4843 299.611C60.7399 299.764 61.0613 299.75 61.3028 299.575C61.5448 299.4 61.658 299.098 61.5921 298.807L60.6914 294.84L63.7463 292.161C63.9703 291.964 64.0556 291.654 63.9634 291.37Z" fill="#DAE0E6"/>
</g>
<g clip-path="url(#clip22_146_1628)">
<path d="M83.9634 291.37C83.8712 291.086 83.6198 290.886 83.3235 290.859L79.2821 290.492L77.6849 286.753C77.567 286.478 77.2987 286.301 77 286.301C76.7014 286.301 76.4329 286.478 76.3158 286.753L74.7186 290.492L70.6766 290.859C70.3803 290.886 70.1294 291.087 70.0366 291.37C69.9445 291.653 70.0296 291.964 70.2537 292.161L73.3087 294.84L72.4079 298.807C72.342 299.098 72.4552 299.4 72.6973 299.575C72.8274 299.67 72.9802 299.717 73.1336 299.717C73.2654 299.717 73.3973 299.682 73.5151 299.611L77 297.528L80.4843 299.611C80.7399 299.764 81.0613 299.75 81.3028 299.575C81.5448 299.4 81.658 299.098 81.5921 298.807L80.6914 294.84L83.7463 292.161C83.9703 291.964 84.0556 291.654 83.9634 291.37Z" fill="#DAE0E6"/>
</g>
<g clip-path="url(#clip23_146_1628)">
<path d="M103.963 291.37C103.871 291.086 103.62 290.886 103.323 290.859L99.2821 290.492L97.6849 286.753C97.567 286.478 97.2987 286.301 97 286.301C96.7014 286.301 96.4329 286.478 96.3158 286.753L94.7186 290.492L90.6766 290.859C90.3803 290.886 90.1294 291.087 90.0366 291.37C89.9445 291.653 90.0296 291.964 90.2537 292.161L93.3087 294.84L92.4079 298.807C92.342 299.098 92.4552 299.4 92.6973 299.575C92.8274 299.67 92.9802 299.717 93.1336 299.717C93.2654 299.717 93.3973 299.682 93.5151 299.611L97 297.528L100.484 299.611C100.74 299.764 101.061 299.75 101.303 299.575C101.545 299.4 101.658 299.098 101.592 298.807L100.691 294.84L103.746 292.161C103.97 291.964 104.056 291.654 103.963 291.37Z" fill="#DAE0E6"/>
</g>
<g clip-path="url(#clip24_146_1628)">
<path d="M123.963 291.37C123.871 291.086 123.62 290.886 123.323 290.859L119.282 290.492L117.685 286.753C117.567 286.478 117.299 286.301 117 286.301C116.701 286.301 116.433 286.478 116.316 286.753L114.719 290.492L110.677 290.859C110.38 290.886 110.129 291.087 110.037 291.37C109.944 291.653 110.03 291.964 110.254 292.161L113.309 294.84L112.408 298.807C112.342 299.098 112.455 299.4 112.697 299.575C112.827 299.67 112.98 299.717 113.134 299.717C113.265 299.717 113.397 299.682 113.515 299.611L117 297.528L120.484 299.611C120.74 299.764 121.061 299.75 121.303 299.575C121.545 299.4 121.658 299.098 121.592 298.807L120.691 294.84L123.746 292.161C123.97 291.964 124.056 291.654 123.963 291.37Z" fill="#DAE0E6"/>
</g>
<g clip-path="url(#clip25_146_1628)">
<path d="M49.9477 37.671C49.816 37.266 49.4568 36.9793 49.0335 36.941L43.2601 36.4168L40.9784 31.075C40.81 30.6825 40.4267 30.4292 40 30.4292C39.5734 30.4292 39.1899 30.6825 39.0225 31.075L36.7408 36.4168L30.9665 36.941C30.5432 36.9801 30.1848 37.2668 30.0524 37.671C29.9207 38.076 30.0423 38.5202 30.3624 38.8009L34.7267 42.6277L33.4399 48.2953C33.3457 48.712 33.5075 49.1429 33.8532 49.3928C34.0391 49.5279 34.2574 49.5953 34.4766 49.5953C34.6649 49.5953 34.8533 49.5453 35.0216 49.4446L40 46.4678L44.9775 49.4446C45.3427 49.6628 45.8018 49.6428 46.1468 49.3928C46.4926 49.1429 46.6543 48.712 46.5602 48.2953L45.2734 42.6277L49.6376 38.8009C49.9576 38.5202 50.0794 38.0769 49.9477 37.671Z" fill="#F2994A"/>
</g>
<g clip-path="url(#clip26_146_1628)">
<path d="M79.9477 37.671C79.816 37.266 79.4568 36.9793 79.0335 36.941L73.2601 36.4168L70.9784 31.075C70.81 30.6825 70.4267 30.4292 70 30.4292C69.5734 30.4292 69.1899 30.6825 69.0225 31.075L66.7408 36.4168L60.9665 36.941C60.5432 36.9801 60.1848 37.2668 60.0524 37.671C59.9207 38.076 60.0423 38.5202 60.3624 38.8009L64.7267 42.6277L63.4399 48.2953C63.3457 48.712 63.5075 49.1429 63.8532 49.3928C64.0391 49.5279 64.2574 49.5953 64.4766 49.5953C64.6649 49.5953 64.8533 49.5453 65.0216 49.4446L70 46.4678L74.9775 49.4446C75.3427 49.6628 75.8018 49.6428 76.1468 49.3928C76.4926 49.1429 76.6543 48.712 76.5602 48.2953L75.2734 42.6277L79.6376 38.8009C79.9576 38.5202 80.0794 38.0769 79.9477 37.671Z" fill="#F2994A"/>
</g>
<g clip-path="url(#clip27_146_1628)">
<path d="M109.948 37.671C109.816 37.266 109.457 36.9793 109.034 36.941L103.26 36.4168L100.978 31.075C100.81 30.6825 100.427 30.4292 100 30.4292C99.5734 30.4292 99.1899 30.6825 99.0225 31.075L96.7408 36.4168L90.9665 36.941C90.5432 36.9801 90.1848 37.2668 90.0524 37.671C89.9207 38.076 90.0423 38.5202 90.3624 38.8009L94.7267 42.6277L93.4399 48.2953C93.3457 48.712 93.5075 49.1429 93.8532 49.3928C94.0391 49.5279 94.2574 49.5953 94.4766 49.5953C94.6649 49.5953 94.8533 49.5453 95.0216 49.4446L100 46.4678L104.978 49.4446C105.343 49.6628 105.802 49.6428 106.147 49.3928C106.493 49.1429 106.654 48.712 106.56 48.2953L105.273 42.6277L109.638 38.8009C109.958 38.5202 110.079 38.0769 109.948 37.671Z" fill="#F2994A"/>
</g>
<g clip-path="url(#clip28_146_1628)">
<path d="M139.948 37.671C139.816 37.266 139.457 36.9793 139.034 36.941L133.26 36.4168L130.978 31.075C130.81 30.6825 130.427 30.4292 130 30.4292C129.573 30.4292 129.19 30.6825 129.023 31.075L126.741 36.4168L120.967 36.941C120.543 36.9801 120.185 37.2668 120.052 37.671C119.921 38.076 120.042 38.5202 120.362 38.8009L124.727 42.6277L123.44 48.2953C123.346 48.712 123.507 49.1429 123.853 49.3928C124.039 49.5279 124.257 49.5953 124.477 49.5953C124.665 49.5953 124.853 49.5453 125.022 49.4446L130 46.4678L134.978 49.4446C135.343 49.6628 135.802 49.6428 136.147 49.3928C136.493 49.1429 136.654 48.712 136.56 48.2953L135.273 42.6277L139.638 38.8009C139.958 38.5202 140.079 38.0769 139.948 37.671Z" fill="#F2994A"/>
</g>
<g clip-path="url(#clip29_146_1628)">
<path d="M169.948 37.671C169.816 37.266 169.457 36.9793 169.034 36.941L163.26 36.4168L160.978 31.075C160.81 30.6825 160.427 30.4292 160 30.4292C159.573 30.4292 159.19 30.6825 159.023 31.075L156.741 36.4168L150.967 36.941C150.543 36.9801 150.185 37.2668 150.052 37.671C149.921 38.076 150.042 38.5202 150.362 38.8009L154.727 42.6277L153.44 48.2953C153.346 48.712 153.507 49.1429 153.853 49.3928C154.039 49.5279 154.257 49.5953 154.477 49.5953C154.665 49.5953 154.853 49.5453 155.022 49.4446L160 46.4678L164.978 49.4446C165.343 49.6628 165.802 49.6428 166.147 49.3928C166.493 49.1429 166.654 48.712 166.56 48.2953L165.273 42.6277L169.638 38.8009C169.958 38.5202 170.079 38.0769 169.948 37.671Z" fill="#DAE0E6"/>
</g>
<path d="M259.172 47V44.2578H254.203V42.9688L259.43 35.5469H260.578V42.9688H262.125V44.2578H260.578V47H259.172ZM259.172 42.9688V37.8047L255.586 42.9688H259.172ZM264.359 47V45.3984H265.961V47H264.359ZM273.32 47H271.914V38.0391C271.576 38.362 271.13 38.6849 270.578 39.0078C270.031 39.3307 269.539 39.5729 269.102 39.7344V38.375C269.888 38.0052 270.576 37.5573 271.164 37.0312C271.753 36.5052 272.169 35.9948 272.414 35.5H273.32V47ZM280.719 47.1953L284.039 35.3516H285.164L281.852 47.1953H280.719ZM290.289 44L291.766 43.875C291.875 44.5938 292.128 45.1354 292.523 45.5C292.924 45.8594 293.406 46.0391 293.969 46.0391C294.646 46.0391 295.219 45.7839 295.688 45.2734C296.156 44.763 296.391 44.0859 296.391 43.2422C296.391 42.4401 296.164 41.8073 295.711 41.3438C295.263 40.8802 294.674 40.6484 293.945 40.6484C293.492 40.6484 293.083 40.7526 292.719 40.9609C292.354 41.1641 292.068 41.4297 291.859 41.7578L290.539 41.5859L291.648 35.7031H297.344V37.0469H292.773L292.156 40.125C292.844 39.6458 293.565 39.4062 294.32 39.4062C295.32 39.4062 296.164 39.7526 296.852 40.4453C297.539 41.138 297.883 42.0286 297.883 43.1172C297.883 44.1536 297.581 45.0495 296.977 45.8047C296.242 46.7318 295.24 47.1953 293.969 47.1953C292.927 47.1953 292.076 46.9036 291.414 46.3203C290.758 45.737 290.383 44.9635 290.289 44Z" fill="#171F26"/>
<line x1="30" y1="79.5" x2="300" y2="79.5" stroke="#DAE0E6"/>
<path d="M230.968 118.9H225.956V118.508L230.534 110.99H232.158V117.906H233.544V118.9H232.158V121H230.968V118.9ZM230.968 117.906V111.914L227.496 117.906H230.968ZM238.149 121.126C237.113 121.126 236.32 120.874 235.769 120.37C235.218 119.857 234.901 119.166 234.817 118.298H235.979C236.091 118.905 236.301 119.367 236.609 119.684C236.917 119.992 237.426 120.146 238.135 120.146C238.816 120.146 239.353 119.931 239.745 119.502C240.137 119.073 240.333 118.48 240.333 117.724C240.333 117.015 240.142 116.45 239.759 116.03C239.386 115.601 238.877 115.386 238.233 115.386C237.673 115.386 237.211 115.465 236.847 115.624C236.483 115.783 236.156 116.025 235.867 116.352H235.419V110.99H241.047V112.04H236.427V115.092C236.922 114.635 237.603 114.406 238.471 114.406C239.386 114.406 240.132 114.709 240.711 115.316C241.29 115.913 241.579 116.716 241.579 117.724C241.579 118.76 241.252 119.586 240.599 120.202C239.946 120.818 239.129 121.126 238.149 121.126ZM250.529 120.16C251.257 120.16 251.835 119.908 252.265 119.404C252.703 118.9 252.923 118.233 252.923 117.402V117.304C252.923 116.455 252.703 115.778 252.265 115.274C251.835 114.77 251.257 114.518 250.529 114.518C249.791 114.518 249.208 114.77 248.779 115.274C248.349 115.778 248.135 116.45 248.135 117.29V117.402C248.135 118.251 248.345 118.923 248.765 119.418C249.194 119.913 249.782 120.16 250.529 120.16ZM250.515 121.126C249.479 121.126 248.62 120.776 247.939 120.076C247.267 119.367 246.931 118.475 246.931 117.402V117.29C246.931 116.198 247.267 115.302 247.939 114.602C248.62 113.902 249.483 113.552 250.529 113.552C251.574 113.552 252.433 113.902 253.105 114.602C253.786 115.293 254.127 116.184 254.127 117.276V117.388C254.127 118.489 253.786 119.39 253.105 120.09C252.423 120.781 251.56 121.126 250.515 121.126ZM260.707 114.658H258.341V121H257.179V114.658H254.813V113.678H260.707V114.658ZM267.027 115.582C267.027 115.946 266.919 116.282 266.705 116.59C266.499 116.889 266.205 117.075 265.823 117.15C266.299 117.234 266.677 117.416 266.957 117.696C267.237 117.976 267.377 118.345 267.377 118.802V118.844C267.377 119.525 267.125 120.076 266.621 120.496C266.126 120.916 265.449 121.126 264.591 121.126C263.704 121.126 263.009 120.921 262.505 120.51C262.01 120.09 261.744 119.502 261.707 118.746H262.841C262.897 119.213 263.055 119.567 263.317 119.81C263.587 120.043 264.012 120.16 264.591 120.16C265.636 120.16 266.159 119.745 266.159 118.914V118.872C266.159 118.461 266.033 118.163 265.781 117.976C265.538 117.789 265.16 117.696 264.647 117.696H263.541V116.772H264.451C264.936 116.772 265.281 116.683 265.487 116.506C265.701 116.329 265.809 116.039 265.809 115.638V115.596C265.809 114.877 265.389 114.518 264.549 114.518C263.737 114.518 263.251 114.901 263.093 115.666H261.973C262.057 114.929 262.337 114.392 262.813 114.056C263.298 113.72 263.9 113.552 264.619 113.552C265.309 113.552 265.883 113.729 266.341 114.084C266.798 114.429 267.027 114.915 267.027 115.54V115.582ZM275.527 113.678H276.689V121H275.527V113.678ZM269.227 113.678H270.389V116.24H271.691C272.521 116.24 273.193 116.427 273.707 116.8C274.229 117.173 274.491 117.761 274.491 118.564V118.606C274.491 119.399 274.229 119.997 273.707 120.398C273.184 120.799 272.512 121 271.691 121H269.227V113.678ZM271.761 120.076C272.311 120.076 272.708 119.959 272.951 119.726C273.203 119.483 273.329 119.11 273.329 118.606V118.564C273.329 118.097 273.207 117.747 272.965 117.514C272.722 117.271 272.321 117.15 271.761 117.15H270.389V120.076H271.761ZM279.043 113.678H281.605C283.323 113.678 284.181 114.299 284.181 115.54V115.582C284.181 115.937 284.083 116.263 283.887 116.562C283.691 116.851 283.397 117.047 283.005 117.15C284.023 117.374 284.531 117.925 284.531 118.802V118.844C284.531 119.553 284.298 120.09 283.831 120.454C283.374 120.818 282.735 121 281.913 121H279.043V113.678ZM280.205 114.602V116.772H281.605C282.091 116.772 282.436 116.683 282.641 116.506C282.856 116.329 282.963 116.039 282.963 115.638V115.596C282.963 115.223 282.851 114.966 282.627 114.826C282.413 114.677 282.067 114.602 281.591 114.602H280.205ZM280.205 117.696V120.076H281.801C282.315 120.076 282.693 119.987 282.935 119.81C283.187 119.623 283.313 119.325 283.313 118.914V118.872C283.313 118.461 283.187 118.163 282.935 117.976C282.693 117.789 282.315 117.696 281.801 117.696H280.205ZM289.521 120.16C290.249 120.16 290.828 119.908 291.257 119.404C291.696 118.9 291.915 118.233 291.915 117.402V117.304C291.915 116.455 291.696 115.778 291.257 115.274C290.828 114.77 290.249 114.518 289.521 114.518C288.784 114.518 288.2 114.77 287.771 115.274C287.342 115.778 287.127 116.45 287.127 117.29V117.402C287.127 118.251 287.337 118.923 287.757 119.418C288.186 119.913 288.774 120.16 289.521 120.16ZM289.507 121.126C288.471 121.126 287.612 120.776 286.931 120.076C286.259 119.367 285.923 118.475 285.923 117.402V117.29C285.923 116.198 286.259 115.302 286.931 114.602C287.612 113.902 288.476 113.552 289.521 113.552C290.566 113.552 291.425 113.902 292.097 114.602C292.778 115.293 293.119 116.184 293.119 117.276V117.388C293.119 118.489 292.778 119.39 292.097 120.09C291.416 120.781 290.552 121.126 289.507 121.126ZM294.834 113.678H297.396C299.114 113.678 299.972 114.299 299.972 115.54V115.582C299.972 115.937 299.874 116.263 299.678 116.562C299.482 116.851 299.188 117.047 298.796 117.15C299.814 117.374 300.322 117.925 300.322 118.802V118.844C300.322 119.553 300.089 120.09 299.622 120.454C299.165 120.818 298.526 121 297.704 121H294.834V113.678ZM295.996 114.602V116.772H297.396C297.882 116.772 298.227 116.683 298.432 116.506C298.647 116.329 298.754 116.039 298.754 115.638V115.596C298.754 115.223 298.642 114.966 298.418 114.826C298.204 114.677 297.858 114.602 297.382 114.602H295.996ZM295.996 117.696V120.076H297.592C298.106 120.076 298.484 119.987 298.726 119.81C298.978 119.623 299.104 119.325 299.104 118.914V118.872C299.104 118.461 298.978 118.163 298.726 117.976C298.484 117.789 298.106 117.696 297.592 117.696H295.996Z" fill="#171F26"/>
<path d="M230.833 156.194L228.593 157.804V156.67L230.917 154.99H232.051V165H230.833V156.194ZM237.81 165.112C236.895 165.112 236.163 164.888 235.612 164.44C235.061 163.992 234.721 163.357 234.59 162.536H235.766C235.887 163.059 236.107 163.455 236.424 163.726C236.751 163.987 237.222 164.118 237.838 164.118C238.65 164.118 239.275 163.787 239.714 163.124C240.153 162.461 240.381 161.467 240.4 160.142C240.148 160.562 239.798 160.889 239.35 161.122C238.902 161.355 238.389 161.472 237.81 161.472C236.839 161.472 236.046 161.164 235.43 160.548C234.823 159.932 234.52 159.148 234.52 158.196C234.52 157.188 234.833 156.381 235.458 155.774C236.083 155.158 236.923 154.85 237.978 154.85C239.163 154.85 240.059 155.233 240.666 155.998C241.273 156.763 241.576 157.874 241.576 159.33V159.96C241.576 161.631 241.249 162.909 240.596 163.796C239.952 164.673 239.023 165.112 237.81 165.112ZM237.992 160.52C238.664 160.52 239.215 160.319 239.644 159.918C240.073 159.517 240.288 158.994 240.288 158.35C240.288 157.547 240.073 156.922 239.644 156.474C239.224 156.026 238.669 155.802 237.978 155.802C237.325 155.802 236.793 156.017 236.382 156.446C235.971 156.875 235.766 157.44 235.766 158.14C235.766 158.868 235.967 159.447 236.368 159.876C236.769 160.305 237.311 160.52 237.992 160.52ZM250.529 164.16C251.257 164.16 251.835 163.908 252.265 163.404C252.703 162.9 252.923 162.233 252.923 161.402V161.304C252.923 160.455 252.703 159.778 252.265 159.274C251.835 158.77 251.257 158.518 250.529 158.518C249.791 158.518 249.208 158.77 248.779 159.274C248.349 159.778 248.135 160.45 248.135 161.29V161.402C248.135 162.251 248.345 162.923 248.765 163.418C249.194 163.913 249.782 164.16 250.529 164.16ZM250.515 165.126C249.479 165.126 248.62 164.776 247.939 164.076C247.267 163.367 246.931 162.475 246.931 161.402V161.29C246.931 160.198 247.267 159.302 247.939 158.602C248.62 157.902 249.483 157.552 250.529 157.552C251.574 157.552 252.433 157.902 253.105 158.602C253.786 159.293 254.127 160.184 254.127 161.276V161.388C254.127 162.489 253.786 163.39 253.105 164.09C252.423 164.781 251.56 165.126 250.515 165.126ZM260.707 158.658H258.341V165H257.179V158.658H254.813V157.678H260.707V158.658ZM267.027 159.582C267.027 159.946 266.919 160.282 266.705 160.59C266.499 160.889 266.205 161.075 265.823 161.15C266.299 161.234 266.677 161.416 266.957 161.696C267.237 161.976 267.377 162.345 267.377 162.802V162.844C267.377 163.525 267.125 164.076 266.621 164.496C266.126 164.916 265.449 165.126 264.591 165.126C263.704 165.126 263.009 164.921 262.505 164.51C262.01 164.09 261.744 163.502 261.707 162.746H262.841C262.897 163.213 263.055 163.567 263.317 163.81C263.587 164.043 264.012 164.16 264.591 164.16C265.636 164.16 266.159 163.745 266.159 162.914V162.872C266.159 162.461 266.033 162.163 265.781 161.976C265.538 161.789 265.16 161.696 264.647 161.696H263.541V160.772H264.451C264.936 160.772 265.281 160.683 265.487 160.506C265.701 160.329 265.809 160.039 265.809 159.638V159.596C265.809 158.877 265.389 158.518 264.549 158.518C263.737 158.518 263.251 158.901 263.093 159.666H261.973C262.057 158.929 262.337 158.392 262.813 158.056C263.298 157.72 263.9 157.552 264.619 157.552C265.309 157.552 265.883 157.729 266.341 158.084C266.798 158.429 267.027 158.915 267.027 159.54V159.582ZM275.527 157.678H276.689V165H275.527V157.678ZM269.227 157.678H270.389V160.24H271.691C272.521 160.24 273.193 160.427 273.707 160.8C274.229 161.173 274.491 161.761 274.491 162.564V162.606C274.491 163.399 274.229 163.997 273.707 164.398C273.184 164.799 272.512 165 271.691 165H269.227V157.678ZM271.761 164.076C272.311 164.076 272.708 163.959 272.951 163.726C273.203 163.483 273.329 163.11 273.329 162.606V162.564C273.329 162.097 273.207 161.747 272.965 161.514C272.722 161.271 272.321 161.15 271.761 161.15H270.389V164.076H271.761ZM279.043 157.678H281.605C283.323 157.678 284.181 158.299 284.181 159.54V159.582C284.181 159.937 284.083 160.263 283.887 160.562C283.691 160.851 283.397 161.047 283.005 161.15C284.023 161.374 284.531 161.925 284.531 162.802V162.844C284.531 163.553 284.298 164.09 283.831 164.454C283.374 164.818 282.735 165 281.913 165H279.043V157.678ZM280.205 158.602V160.772H281.605C282.091 160.772 282.436 160.683 282.641 160.506C282.856 160.329 282.963 160.039 282.963 159.638V159.596C282.963 159.223 282.851 158.966 282.627 158.826C282.413 158.677 282.067 158.602 281.591 158.602H280.205ZM280.205 161.696V164.076H281.801C282.315 164.076 282.693 163.987 282.935 163.81C283.187 163.623 283.313 163.325 283.313 162.914V162.872C283.313 162.461 283.187 162.163 282.935 161.976C282.693 161.789 282.315 161.696 281.801 161.696H280.205ZM289.521 164.16C290.249 164.16 290.828 163.908 291.257 163.404C291.696 162.9 291.915 162.233 291.915 161.402V161.304C291.915 160.455 291.696 159.778 291.257 159.274C290.828 158.77 290.249 158.518 289.521 158.518C288.784 158.518 288.2 158.77 287.771 159.274C287.342 159.778 287.127 160.45 287.127 161.29V161.402C287.127 162.251 287.337 162.923 287.757 163.418C288.186 163.913 288.774 164.16 289.521 164.16ZM289.507 165.126C288.471 165.126 287.612 164.776 286.931 164.076C286.259 163.367 285.923 162.475 285.923 161.402V161.29C285.923 160.198 286.259 159.302 286.931 158.602C287.612 157.902 288.476 157.552 289.521 157.552C290.566 157.552 291.425 157.902 292.097 158.602C292.778 159.293 293.119 160.184 293.119 161.276V161.388C293.119 162.489 292.778 163.39 292.097 164.09C291.416 164.781 290.552 165.126 289.507 165.126ZM294.834 157.678H297.396C299.114 157.678 299.972 158.299 299.972 159.54V159.582C299.972 159.937 299.874 160.263 299.678 160.562C299.482 160.851 299.188 161.047 298.796 161.15C299.814 161.374 300.322 161.925 300.322 162.802V162.844C300.322 163.553 300.089 164.09 299.622 164.454C299.165 164.818 298.526 165 297.704 165H294.834V157.678ZM295.996 158.602V160.772H297.396C297.882 160.772 298.227 160.683 298.432 160.506C298.647 160.329 298.754 160.039 298.754 159.638V159.596C298.754 159.223 298.642 158.966 298.418 158.826C298.204 158.677 297.858 158.602 297.382 158.602H295.996ZM295.996 161.696V164.076H297.592C298.106 164.076 298.484 163.987 298.726 163.81C298.978 163.623 299.104 163.325 299.104 162.914V162.872C299.104 162.461 298.978 162.163 298.726 161.976C298.484 161.789 298.106 161.696 297.592 161.696H295.996Z" fill="#171F26"/>
<path d="M239.349 206.9H234.337V206.508L238.915 198.99H240.539V205.906H241.925V206.9H240.539V209H239.349V206.9ZM239.349 205.906V199.914L235.877 205.906H239.349ZM250.529 208.16C251.257 208.16 251.835 207.908 252.265 207.404C252.703 206.9 252.923 206.233 252.923 205.402V205.304C252.923 204.455 252.703 203.778 252.265 203.274C251.835 202.77 251.257 202.518 250.529 202.518C249.791 202.518 249.208 202.77 248.779 203.274C248.349 203.778 248.135 204.45 248.135 205.29V205.402C248.135 206.251 248.345 206.923 248.765 207.418C249.194 207.913 249.782 208.16 250.529 208.16ZM250.515 209.126C249.479 209.126 248.62 208.776 247.939 208.076C247.267 207.367 246.931 206.475 246.931 205.402V205.29C246.931 204.198 247.267 203.302 247.939 202.602C248.62 201.902 249.483 201.552 250.529 201.552C251.574 201.552 252.433 201.902 253.105 202.602C253.786 203.293 254.127 204.184 254.127 205.276V205.388C254.127 206.489 253.786 207.39 253.105 208.09C252.423 208.781 251.56 209.126 250.515 209.126ZM260.707 202.658H258.341V209H257.179V202.658H254.813V201.678H260.707V202.658ZM267.027 203.582C267.027 203.946 266.919 204.282 266.705 204.59C266.499 204.889 266.205 205.075 265.823 205.15C266.299 205.234 266.677 205.416 266.957 205.696C267.237 205.976 267.377 206.345 267.377 206.802V206.844C267.377 207.525 267.125 208.076 266.621 208.496C266.126 208.916 265.449 209.126 264.591 209.126C263.704 209.126 263.009 208.921 262.505 208.51C262.01 208.09 261.744 207.502 261.707 206.746H262.841C262.897 207.213 263.055 207.567 263.317 207.81C263.587 208.043 264.012 208.16 264.591 208.16C265.636 208.16 266.159 207.745 266.159 206.914V206.872C266.159 206.461 266.033 206.163 265.781 205.976C265.538 205.789 265.16 205.696 264.647 205.696H263.541V204.772H264.451C264.936 204.772 265.281 204.683 265.487 204.506C265.701 204.329 265.809 204.039 265.809 203.638V203.596C265.809 202.877 265.389 202.518 264.549 202.518C263.737 202.518 263.251 202.901 263.093 203.666H261.973C262.057 202.929 262.337 202.392 262.813 202.056C263.298 201.72 263.9 201.552 264.619 201.552C265.309 201.552 265.883 201.729 266.341 202.084C266.798 202.429 267.027 202.915 267.027 203.54V203.582ZM275.527 201.678H276.689V209H275.527V201.678ZM269.227 201.678H270.389V204.24H271.691C272.521 204.24 273.193 204.427 273.707 204.8C274.229 205.173 274.491 205.761 274.491 206.564V206.606C274.491 207.399 274.229 207.997 273.707 208.398C273.184 208.799 272.512 209 271.691 209H269.227V201.678ZM271.761 208.076C272.311 208.076 272.708 207.959 272.951 207.726C273.203 207.483 273.329 207.11 273.329 206.606V206.564C273.329 206.097 273.207 205.747 272.965 205.514C272.722 205.271 272.321 205.15 271.761 205.15H270.389V208.076H271.761ZM279.043 201.678H281.605C283.323 201.678 284.181 202.299 284.181 203.54V203.582C284.181 203.937 284.083 204.263 283.887 204.562C283.691 204.851 283.397 205.047 283.005 205.15C284.023 205.374 284.531 205.925 284.531 206.802V206.844C284.531 207.553 284.298 208.09 283.831 208.454C283.374 208.818 282.735 209 281.913 209H279.043V201.678ZM280.205 202.602V204.772H281.605C282.091 204.772 282.436 204.683 282.641 204.506C282.856 204.329 282.963 204.039 282.963 203.638V203.596C282.963 203.223 282.851 202.966 282.627 202.826C282.413 202.677 282.067 202.602 281.591 202.602H280.205ZM280.205 205.696V208.076H281.801C282.315 208.076 282.693 207.987 282.935 207.81C283.187 207.623 283.313 207.325 283.313 206.914V206.872C283.313 206.461 283.187 206.163 282.935 205.976C282.693 205.789 282.315 205.696 281.801 205.696H280.205ZM289.521 208.16C290.249 208.16 290.828 207.908 291.257 207.404C291.696 206.9 291.915 206.233 291.915 205.402V205.304C291.915 204.455 291.696 203.778 291.257 203.274C290.828 202.77 290.249 202.518 289.521 202.518C288.784 202.518 288.2 202.77 287.771 203.274C287.342 203.778 287.127 204.45 287.127 205.29V205.402C287.127 206.251 287.337 206.923 287.757 207.418C288.186 207.913 288.774 208.16 289.521 208.16ZM289.507 209.126C288.471 209.126 287.612 208.776 286.931 208.076C286.259 207.367 285.923 206.475 285.923 205.402V205.29C285.923 204.198 286.259 203.302 286.931 202.602C287.612 201.902 288.476 201.552 289.521 201.552C290.566 201.552 291.425 201.902 292.097 202.602C292.778 203.293 293.119 204.184 293.119 205.276V205.388C293.119 206.489 292.778 207.39 292.097 208.09C291.416 208.781 290.552 209.126 289.507 209.126ZM294.834 201.678H297.396C299.114 201.678 299.972 202.299 299.972 203.54V203.582C299.972 203.937 299.874 204.263 299.678 204.562C299.482 204.851 299.188 205.047 298.796 205.15C299.814 205.374 300.322 205.925 300.322 206.802V206.844C300.322 207.553 300.089 208.09 299.622 208.454C299.165 208.818 298.526 209 297.704 209H294.834V201.678ZM295.996 202.602V204.772H297.396C297.882 204.772 298.227 204.683 298.432 204.506C298.647 204.329 298.754 204.039 298.754 203.638V203.596C298.754 203.223 298.642 202.966 298.418 202.826C298.204 202.677 297.858 202.602 297.382 202.602H295.996ZM295.996 205.696V208.076H297.592C298.106 208.076 298.484 207.987 298.726 207.81C298.978 207.623 299.104 207.325 299.104 206.914V206.872C299.104 206.461 298.978 206.163 298.726 205.976C298.484 205.789 298.106 205.696 297.592 205.696H295.996Z" fill="#171F26"/>
<path d="M234.932 252.72L238.908 248.534C239.869 247.517 240.35 246.551 240.35 245.636C240.35 245.076 240.191 244.637 239.874 244.32C239.566 244.003 239.127 243.844 238.558 243.844C237.345 243.844 236.64 244.586 236.444 246.07H235.31C235.385 245.081 235.707 244.301 236.276 243.732C236.855 243.153 237.615 242.864 238.558 242.864C239.482 242.864 240.215 243.121 240.756 243.634C241.307 244.138 241.582 244.819 241.582 245.678C241.582 246.779 240.91 247.993 239.566 249.318L236.808 252.006H241.638V253H234.932V252.72ZM250.529 252.16C251.257 252.16 251.835 251.908 252.265 251.404C252.703 250.9 252.923 250.233 252.923 249.402V249.304C252.923 248.455 252.703 247.778 252.265 247.274C251.835 246.77 251.257 246.518 250.529 246.518C249.791 246.518 249.208 246.77 248.779 247.274C248.349 247.778 248.135 248.45 248.135 249.29V249.402C248.135 250.251 248.345 250.923 248.765 251.418C249.194 251.913 249.782 252.16 250.529 252.16ZM250.515 253.126C249.479 253.126 248.62 252.776 247.939 252.076C247.267 251.367 246.931 250.475 246.931 249.402V249.29C246.931 248.198 247.267 247.302 247.939 246.602C248.62 245.902 249.483 245.552 250.529 245.552C251.574 245.552 252.433 245.902 253.105 246.602C253.786 247.293 254.127 248.184 254.127 249.276V249.388C254.127 250.489 253.786 251.39 253.105 252.09C252.423 252.781 251.56 253.126 250.515 253.126ZM260.707 246.658H258.341V253H257.179V246.658H254.813V245.678H260.707V246.658ZM267.027 247.582C267.027 247.946 266.919 248.282 266.705 248.59C266.499 248.889 266.205 249.075 265.823 249.15C266.299 249.234 266.677 249.416 266.957 249.696C267.237 249.976 267.377 250.345 267.377 250.802V250.844C267.377 251.525 267.125 252.076 266.621 252.496C266.126 252.916 265.449 253.126 264.591 253.126C263.704 253.126 263.009 252.921 262.505 252.51C262.01 252.09 261.744 251.502 261.707 250.746H262.841C262.897 251.213 263.055 251.567 263.317 251.81C263.587 252.043 264.012 252.16 264.591 252.16C265.636 252.16 266.159 251.745 266.159 250.914V250.872C266.159 250.461 266.033 250.163 265.781 249.976C265.538 249.789 265.16 249.696 264.647 249.696H263.541V248.772H264.451C264.936 248.772 265.281 248.683 265.487 248.506C265.701 248.329 265.809 248.039 265.809 247.638V247.596C265.809 246.877 265.389 246.518 264.549 246.518C263.737 246.518 263.251 246.901 263.093 247.666H261.973C262.057 246.929 262.337 246.392 262.813 246.056C263.298 245.72 263.9 245.552 264.619 245.552C265.309 245.552 265.883 245.729 266.341 246.084C266.798 246.429 267.027 246.915 267.027 247.54V247.582ZM275.527 245.678H276.689V253H275.527V245.678ZM269.227 245.678H270.389V248.24H271.691C272.521 248.24 273.193 248.427 273.707 248.8C274.229 249.173 274.491 249.761 274.491 250.564V250.606C274.491 251.399 274.229 251.997 273.707 252.398C273.184 252.799 272.512 253 271.691 253H269.227V245.678ZM271.761 252.076C272.311 252.076 272.708 251.959 272.951 251.726C273.203 251.483 273.329 251.11 273.329 250.606V250.564C273.329 250.097 273.207 249.747 272.965 249.514C272.722 249.271 272.321 249.15 271.761 249.15H270.389V252.076H271.761ZM279.043 245.678H281.605C283.323 245.678 284.181 246.299 284.181 247.54V247.582C284.181 247.937 284.083 248.263 283.887 248.562C283.691 248.851 283.397 249.047 283.005 249.15C284.023 249.374 284.531 249.925 284.531 250.802V250.844C284.531 251.553 284.298 252.09 283.831 252.454C283.374 252.818 282.735 253 281.913 253H279.043V245.678ZM280.205 246.602V248.772H281.605C282.091 248.772 282.436 248.683 282.641 248.506C282.856 248.329 282.963 248.039 282.963 247.638V247.596C282.963 247.223 282.851 246.966 282.627 246.826C282.413 246.677 282.067 246.602 281.591 246.602H280.205ZM280.205 249.696V252.076H281.801C282.315 252.076 282.693 251.987 282.935 251.81C283.187 251.623 283.313 251.325 283.313 250.914V250.872C283.313 250.461 283.187 250.163 282.935 249.976C282.693 249.789 282.315 249.696 281.801 249.696H280.205ZM289.521 252.16C290.249 252.16 290.828 251.908 291.257 251.404C291.696 250.9 291.915 250.233 291.915 249.402V249.304C291.915 248.455 291.696 247.778 291.257 247.274C290.828 246.77 290.249 246.518 289.521 246.518C288.784 246.518 288.2 246.77 287.771 247.274C287.342 247.778 287.127 248.45 287.127 249.29V249.402C287.127 250.251 287.337 250.923 287.757 251.418C288.186 251.913 288.774 252.16 289.521 252.16ZM289.507 253.126C288.471 253.126 287.612 252.776 286.931 252.076C286.259 251.367 285.923 250.475 285.923 249.402V249.29C285.923 248.198 286.259 247.302 286.931 246.602C287.612 245.902 288.476 245.552 289.521 245.552C290.566 245.552 291.425 245.902 292.097 246.602C292.778 247.293 293.119 248.184 293.119 249.276V249.388C293.119 250.489 292.778 251.39 292.097 252.09C291.416 252.781 290.552 253.126 289.507 253.126ZM294.834 245.678H297.396C299.114 245.678 299.972 246.299 299.972 247.54V247.582C299.972 247.937 299.874 248.263 299.678 248.562C299.482 248.851 299.188 249.047 298.796 249.15C299.814 249.374 300.322 249.925 300.322 250.802V250.844C300.322 251.553 300.089 252.09 299.622 252.454C299.165 252.818 298.526 253 297.704 253H294.834V245.678ZM295.996 246.602V248.772H297.396C297.882 248.772 298.227 248.683 298.432 248.506C298.647 248.329 298.754 248.039 298.754 247.638V247.596C298.754 247.223 298.642 246.966 298.418 246.826C298.204 246.677 297.858 246.602 297.382 246.602H295.996ZM295.996 249.696V252.076H297.592C298.106 252.076 298.484 251.987 298.726 251.81C298.978 251.623 299.104 251.325 299.104 250.914V250.872C299.104 250.461 298.978 250.163 298.726 249.976C298.484 249.789 298.106 249.696 297.592 249.696H295.996Z" fill="#171F26"/>
<path d="M239.542 288.194L237.302 289.804V288.67L239.626 286.99H240.76V297H239.542V288.194ZM250.529 296.16C251.257 296.16 251.835 295.908 252.265 295.404C252.703 294.9 252.923 294.233 252.923 293.402V293.304C252.923 292.455 252.703 291.778 252.265 291.274C251.835 290.77 251.257 290.518 250.529 290.518C249.791 290.518 249.208 290.77 248.779 291.274C248.349 291.778 248.135 292.45 248.135 293.29V293.402C248.135 294.251 248.345 294.923 248.765 295.418C249.194 295.913 249.782 296.16 250.529 296.16ZM250.515 297.126C249.479 297.126 248.62 296.776 247.939 296.076C247.267 295.367 246.931 294.475 246.931 293.402V293.29C246.931 292.198 247.267 291.302 247.939 290.602C248.62 289.902 249.483 289.552 250.529 289.552C251.574 289.552 252.433 289.902 253.105 290.602C253.786 291.293 254.127 292.184 254.127 293.276V293.388C254.127 294.489 253.786 295.39 253.105 296.09C252.423 296.781 251.56 297.126 250.515 297.126ZM260.707 290.658H258.341V297H257.179V290.658H254.813V289.678H260.707V290.658ZM267.027 291.582C267.027 291.946 266.919 292.282 266.705 292.59C266.499 292.889 266.205 293.075 265.823 293.15C266.299 293.234 266.677 293.416 266.957 293.696C267.237 293.976 267.377 294.345 267.377 294.802V294.844C267.377 295.525 267.125 296.076 266.621 296.496C266.126 296.916 265.449 297.126 264.591 297.126C263.704 297.126 263.009 296.921 262.505 296.51C262.01 296.09 261.744 295.502 261.707 294.746H262.841C262.897 295.213 263.055 295.567 263.317 295.81C263.587 296.043 264.012 296.16 264.591 296.16C265.636 296.16 266.159 295.745 266.159 294.914V294.872C266.159 294.461 266.033 294.163 265.781 293.976C265.538 293.789 265.16 293.696 264.647 293.696H263.541V292.772H264.451C264.936 292.772 265.281 292.683 265.487 292.506C265.701 292.329 265.809 292.039 265.809 291.638V291.596C265.809 290.877 265.389 290.518 264.549 290.518C263.737 290.518 263.251 290.901 263.093 291.666H261.973C262.057 290.929 262.337 290.392 262.813 290.056C263.298 289.72 263.9 289.552 264.619 289.552C265.309 289.552 265.883 289.729 266.341 290.084C266.798 290.429 267.027 290.915 267.027 291.54V291.582ZM275.527 289.678H276.689V297H275.527V289.678ZM269.227 289.678H270.389V292.24H271.691C272.521 292.24 273.193 292.427 273.707 292.8C274.229 293.173 274.491 293.761 274.491 294.564V294.606C274.491 295.399 274.229 295.997 273.707 296.398C273.184 296.799 272.512 297 271.691 297H269.227V289.678ZM271.761 296.076C272.311 296.076 272.708 295.959 272.951 295.726C273.203 295.483 273.329 295.11 273.329 294.606V294.564C273.329 294.097 273.207 293.747 272.965 293.514C272.722 293.271 272.321 293.15 271.761 293.15H270.389V296.076H271.761ZM279.043 289.678H281.605C283.323 289.678 284.181 290.299 284.181 291.54V291.582C284.181 291.937 284.083 292.263 283.887 292.562C283.691 292.851 283.397 293.047 283.005 293.15C284.023 293.374 284.531 293.925 284.531 294.802V294.844C284.531 295.553 284.298 296.09 283.831 296.454C283.374 296.818 282.735 297 281.913 297H279.043V289.678ZM280.205 290.602V292.772H281.605C282.091 292.772 282.436 292.683 282.641 292.506C282.856 292.329 282.963 292.039 282.963 291.638V291.596C282.963 291.223 282.851 290.966 282.627 290.826C282.413 290.677 282.067 290.602 281.591 290.602H280.205ZM280.205 293.696V296.076H281.801C282.315 296.076 282.693 295.987 282.935 295.81C283.187 295.623 283.313 295.325 283.313 294.914V294.872C283.313 294.461 283.187 294.163 282.935 293.976C282.693 293.789 282.315 293.696 281.801 293.696H280.205ZM289.521 296.16C290.249 296.16 290.828 295.908 291.257 295.404C291.696 294.9 291.915 294.233 291.915 293.402V293.304C291.915 292.455 291.696 291.778 291.257 291.274C290.828 290.77 290.249 290.518 289.521 290.518C288.784 290.518 288.2 290.77 287.771 291.274C287.342 291.778 287.127 292.45 287.127 293.29V293.402C287.127 294.251 287.337 294.923 287.757 295.418C288.186 295.913 288.774 296.16 289.521 296.16ZM289.507 297.126C288.471 297.126 287.612 296.776 286.931 296.076C286.259 295.367 285.923 294.475 285.923 293.402V293.29C285.923 292.198 286.259 291.302 286.931 290.602C287.612 289.902 288.476 289.552 289.521 289.552C290.566 289.552 291.425 289.902 292.097 290.602C292.778 291.293 293.119 292.184 293.119 293.276V293.388C293.119 294.489 292.778 295.39 292.097 296.09C291.416 296.781 290.552 297.126 289.507 297.126ZM294.834 289.678H297.396C299.114 289.678 299.972 290.299 299.972 291.54V291.582C299.972 291.937 299.874 292.263 299.678 292.562C299.482 292.851 299.188 293.047 298.796 293.15C299.814 293.374 300.322 293.925 300.322 294.802V294.844C300.322 295.553 300.089 296.09 299.622 296.454C299.165 296.818 298.526 297 297.704 297H294.834V289.678ZM295.996 290.602V292.772H297.396C297.882 292.772 298.227 292.683 298.432 292.506C298.647 292.329 298.754 292.039 298.754 291.638V291.596C298.754 291.223 298.642 290.966 298.418 290.826C298.204 290.677 297.858 290.602 297.382 290.602H295.996ZM295.996 293.696V296.076H297.592C298.106 296.076 298.484 295.987 298.726 295.81C298.978 295.623 299.104 295.325 299.104 294.914V294.872C299.104 294.461 298.978 294.163 298.726 293.976C298.484 293.789 298.106 293.696 297.592 293.696H295.996Z" fill="#171F26"/>
<defs>
<clipPath id="clip0_146_1628">
<rect width="14" height="14" fill="white" transform="translate(30 110)"/>
</clipPath>
<clipPath id="clip1_146_1628">
<rect width="14" height="14" fill="white" transform="translate(50 110)"/>
</clipPath>
<clipPath id="clip2_146_1628">
<rect width="14" height="14" fill="white" transform="translate(70 110)"/>
</clipPath>
<clipPath id="clip3_146_1628">
<rect width="14" height="14" fill="white" transform="translate(90 110)"/>
</clipPath>
<clipPath id="clip4_146_1628">
<rect width="14" height="14" fill="white" transform="translate(110 110)"/>
</clipPath>
<clipPath id="clip5_146_1628">
<rect width="14" height="14" fill="white" transform="translate(30 154)"/>
</clipPath>
<clipPath id="clip6_146_1628">
<rect width="14" height="14" fill="white" transform="translate(50 154)"/>
</clipPath>
<clipPath id="clip7_146_1628">
<rect width="14" height="14" fill="white" transform="translate(70 154)"/>
</clipPath>
<clipPath id="clip8_146_1628">
<rect width="14" height="14" fill="white" transform="translate(90 154)"/>
</clipPath>
<clipPath id="clip9_146_1628">
<rect width="14" height="14" fill="white" transform="translate(110 154)"/>
</clipPath>
<clipPath id="clip10_146_1628">
<rect width="14" height="14" fill="white" transform="translate(30 198)"/>
</clipPath>
<clipPath id="clip11_146_1628">
<rect width="14" height="14" fill="white" transform="translate(50 198)"/>
</clipPath>
<clipPath id="clip12_146_1628">
<rect width="14" height="14" fill="white" transform="translate(70 198)"/>
</clipPath>
<clipPath id="clip13_146_1628">
<rect width="14" height="14" fill="white" transform="translate(90 198)"/>
</clipPath>
<clipPath id="clip14_146_1628">
<rect width="14" height="14" fill="white" transform="translate(110 198)"/>
</clipPath>
<clipPath id="clip15_146_1628">
<rect width="14" height="14" fill="white" transform="translate(30 242)"/>
</clipPath>
<clipPath id="clip16_146_1628">
<rect width="14" height="14" fill="white" transform="translate(50 242)"/>
</clipPath>
<clipPath id="clip17_146_1628">
<rect width="14" height="14" fill="white" transform="translate(70 242)"/>
</clipPath>
<clipPath id="clip18_146_1628">
<rect width="14" height="14" fill="white" transform="translate(90 242)"/>
</clipPath>
<clipPath id="clip19_146_1628">
<rect width="14" height="14" fill="white" transform="translate(110 242)"/>
</clipPath>
<clipPath id="clip20_146_1628">
<rect width="14" height="14" fill="white" transform="translate(30 286)"/>
</clipPath>
<clipPath id="clip21_146_1628">
<rect width="14" height="14" fill="white" transform="translate(50 286)"/>
</clipPath>
<clipPath id="clip22_146_1628">
<rect width="14" height="14" fill="white" transform="translate(70 286)"/>
</clipPath>
<clipPath id="clip23_146_1628">
<rect width="14" height="14" fill="white" transform="translate(90 286)"/>
</clipPath>
<clipPath id="clip24_146_1628">
<rect width="14" height="14" fill="white" transform="translate(110 286)"/>
</clipPath>
<clipPath id="clip25_146_1628">
<rect width="20" height="20" fill="white" transform="translate(30 30)"/>
</clipPath>
<clipPath id="clip26_146_1628">
<rect width="20" height="20" fill="white" transform="translate(60 30)"/>
</clipPath>
<clipPath id="clip27_146_1628">
<rect width="20" height="20" fill="white" transform="translate(90 30)"/>
</clipPath>
<clipPath id="clip28_146_1628">
<rect width="20" height="20" fill="white" transform="translate(120 30)"/>
</clipPath>
<clipPath id="clip29_146_1628">
<rect width="20" height="20" fill="white" transform="translate(150 30)"/>
</clipPath>
</defs>
</svg>
